G04 ================== begin FILE IDENTIFICATION RECORD ==================*
G04 Layout Name:  C:/OrCAD/week 11/allegro/WEEK 11 ECG PROJECT new type 1.brd*
G04 Film Name:    DRILL_DRAW*
G04 File Format:  Gerber RS274X*
G04 File Origin:  Cadence Allegro 16.6-P004*
G04 Origin Date:  Sun May 23 19:35:43 2021*
G04 *
G04 Layer:  MANUFACTURING/NCLEGEND-1-2*
G04 Layer:  BOARD GEOMETRY/OUTLINE*
G04 *
G04 Offset:    (0.0000 0.0000)*
G04 Mirror:    No*
G04 Mode:      Positive*
G04 Rotation:  0*
G04 FullContactRelief:  No*
G04 UndefLineWidth:     1.0000*
G04 ================== end FILE IDENTIFICATION RECORD ====================*
%FSLAX25Y25*MOMM*%
%IR0*IPPOS*OFA0.00000B0.00000*MIA0B0*SFA1.00000B1.00000*%
%AMMACRO10*
1,1,1.,.635,0.0*
20,1,1.,.635,0.0,.625353,-.110267,0.0*
1,1,1.,.625353,-.110267*
20,1,1.,.625353,-.110267,.596705,-.217183,0.0*
1,1,1.,.596705,-.217183*
20,1,1.,.596705,-.217183,.549926,-.3175,0.0*
1,1,1.,.549926,-.3175*
20,1,1.,.549926,-.3175,.486438,-.40817,0.0*
1,1,1.,.486438,-.40817*
20,1,1.,.486438,-.40817,.40817,-.486438,0.0*
1,1,1.,.40817,-.486438*
20,1,1.,.40817,-.486438,.3175,-.549926,0.0*
1,1,1.,.3175,-.549926*
20,1,1.,.3175,-.549926,.217183,-.596705,0.0*
1,1,1.,.217183,-.596705*
20,1,1.,.217183,-.596705,.110267,-.625353,0.0*
1,1,1.,.110267,-.625353*
20,1,1.,.110267,-.625353,0.0,-.635,0.0*
1,1,1.,0.0,-.635*
20,1,1.,0.0,-.635,-.110267,-.625353,0.0*
1,1,1.,-.110267,-.625353*
20,1,1.,-.110267,-.625353,-.217183,-.596705,0.0*
1,1,1.,-.217183,-.596705*
20,1,1.,-.217183,-.596705,-.3175,-.549926,0.0*
1,1,1.,-.3175,-.549926*
20,1,1.,-.3175,-.549926,-.40817,-.486438,0.0*
1,1,1.,-.40817,-.486438*
20,1,1.,-.40817,-.486438,-.486438,-.40817,0.0*
1,1,1.,-.486438,-.40817*
20,1,1.,-.486438,-.40817,-.549926,-.3175,0.0*
1,1,1.,-.549926,-.3175*
20,1,1.,-.549926,-.3175,-.596705,-.217183,0.0*
1,1,1.,-.596705,-.217183*
20,1,1.,-.596705,-.217183,-.625353,-.110267,0.0*
1,1,1.,-.625353,-.110267*
20,1,1.,-.625353,-.110267,-.635,0.0,0.0*
1,1,1.,-.635,0.0*
20,1,1.,-.635,0.0,-.625353,.110267,0.0*
1,1,1.,-.625353,.110267*
20,1,1.,-.625353,.110267,-.596705,.217183,0.0*
1,1,1.,-.596705,.217183*
20,1,1.,-.596705,.217183,-.549926,.3175,0.0*
1,1,1.,-.549926,.3175*
20,1,1.,-.549926,.3175,-.486438,.40817,0.0*
1,1,1.,-.486438,.40817*
20,1,1.,-.486438,.40817,-.40817,.486438,0.0*
1,1,1.,-.40817,.486438*
20,1,1.,-.40817,.486438,-.3175,.549926,0.0*
1,1,1.,-.3175,.549926*
20,1,1.,-.3175,.549926,-.217183,.596705,0.0*
1,1,1.,-.217183,.596705*
20,1,1.,-.217183,.596705,-.110267,.625353,0.0*
1,1,1.,-.110267,.625353*
20,1,1.,-.110267,.625353,0.0,.635,0.0*
1,1,1.,0.0,.635*
20,1,1.,0.0,.635,.110267,.625353,0.0*
1,1,1.,.110267,.625353*
20,1,1.,.110267,.625353,.217183,.596705,0.0*
1,1,1.,.217183,.596705*
20,1,1.,.217183,.596705,.3175,.549926,0.0*
1,1,1.,.3175,.549926*
20,1,1.,.3175,.549926,.40817,.486438,0.0*
1,1,1.,.40817,.486438*
20,1,1.,.40817,.486438,.486438,.40817,0.0*
1,1,1.,.486438,.40817*
20,1,1.,.486438,.40817,.549926,.3175,0.0*
1,1,1.,.549926,.3175*
20,1,1.,.549926,.3175,.596705,.217183,0.0*
1,1,1.,.596705,.217183*
20,1,1.,.596705,.217183,.625353,.110267,0.0*
1,1,1.,.625353,.110267*
20,1,1.,.625353,.110267,.635,0.0,0.0*
1,1,1.,.635,0.0*
1,1,1.,.3175,0.0*
20,1,1.,.3175,0.0,-.3175,0.0,0.0*
1,1,1.,-.3175,0.0*
1,1,1.,0.0,.3175*
20,1,1.,0.0,.3175,0.0,-.3175,0.0*
1,1,1.,0.0,-.3175*
%
%ADD10MACRO10*%
%AMMACRO11*
1,1,1.,0.0,.635*
20,1,1.,0.0,.635,.635,-.635,0.0*
1,1,1.,.635,-.635*
20,1,1.,.635,-.635,-.635,-.635,0.0*
1,1,1.,-.635,-.635*
20,1,1.,-.635,-.635,0.0,.635,0.0*
1,1,1.,0.0,.635*
1,1,1.,-.3175,-.3175*
20,1,1.,-.3175,-.3175,-.3175,.1058,0.0*
1,1,1.,-.3175,.1058*
1,1,1.,-.3175,-.0106*
20,1,1.,-.3175,-.0106,-.2858,.0423,0.0*
1,1,1.,-.2858,.0423*
20,1,1.,-.2858,.0423,-.2328,.0847,0.0*
1,1,1.,-.2328,.0847*
20,1,1.,-.2328,.0847,-.1587,.1058,0.0*
1,1,1.,-.1587,.1058*
20,1,1.,-.1587,.1058,-.0847,.0847,0.0*
1,1,1.,-.0847,.0847*
20,1,1.,-.0847,.0847,-.0318,.0423,0.0*
1,1,1.,-.0318,.0423*
20,1,1.,-.0318,.0423,0.0,-.0106,0.0*
1,1,1.,0.0,-.0106*
20,1,1.,0.0,-.0106,0.0,-.3175,0.0*
1,1,1.,0.0,-.3175*
1,1,1.,0.0,-.0106*
20,1,1.,0.0,-.0106,.0318,.0423,0.0*
1,1,1.,.0318,.0423*
20,1,1.,.0318,.0423,.0847,.0847,0.0*
1,1,1.,.0847,.0847*
20,1,1.,.0847,.0847,.1587,.1058,0.0*
1,1,1.,.1587,.1058*
20,1,1.,.1587,.1058,.2328,.0847,0.0*
1,1,1.,.2328,.0847*
20,1,1.,.2328,.0847,.2858,.0423,0.0*
1,1,1.,.2858,.0423*
20,1,1.,.2858,.0423,.3175,-.0212,0.0*
1,1,1.,.3175,-.0212*
20,1,1.,.3175,-.0212,.3175,-.3175,0.0*
1,1,1.,.3175,-.3175*
%
%ADD11MACRO11*%
%ADD12C,1.*%
G75*
%LPD*%
G75*
G54D10*
X762000Y2857500D03*
X189230Y7408150D03*
X1143000Y1587500D03*
X1460500Y952500D03*
Y2095500D03*
X1143000Y1841500D03*
X1587500Y1651000D03*
X1524000Y2349500D03*
X1016000Y2413000D03*
X1524000Y3556000D03*
X1778000Y952500D03*
X1968500Y1968500D03*
X1714500Y1651000D03*
X1968500Y2222500D03*
Y2349500D03*
X2032000Y3111500D03*
Y2857500D03*
X1778000Y3683000D03*
X2095500Y3302000D03*
X1968500Y4254500D03*
Y3937000D03*
X2286000Y4699000D03*
Y4889500D03*
X2603500Y2794000D03*
X3048000Y2857500D03*
X3683000Y1587500D03*
X3365500Y1397000D03*
X3873500D03*
X3492500Y1460500D03*
X3556000Y1905000D03*
X3810000D03*
X3619500Y1778000D03*
Y2032000D03*
X3492500Y1651000D03*
X3810000Y2603500D03*
X3492500D03*
X3746500Y2730500D03*
X3619500Y3048000D03*
X3556000Y3873500D03*
Y4000500D03*
X3810000Y4254500D03*
X3492500Y4508500D03*
X3810000Y5207000D03*
X3492500Y5080000D03*
X4381500Y1016000D03*
X3937000Y2984500D03*
X4127500D03*
X4508500Y3873500D03*
X4318000Y4381500D03*
X4127500D03*
X4508500Y4064000D03*
Y5016500D03*
X4699000Y2730500D03*
X5207000Y3302000D03*
Y3873500D03*
Y4127500D03*
X5080000Y4000500D03*
X6032500Y3238500D03*
X6604000Y1968500D03*
Y1714500D03*
X7556500Y1587500D03*
X7683500D03*
X7810500Y1460500D03*
Y2222500D03*
X7937500Y2032000D03*
Y1841500D03*
Y3492500D03*
Y3937000D03*
X9080500Y3619500D03*
Y3302000D03*
X8699500Y4127500D03*
X9398000Y3492500D03*
G54D11*
X189230Y6694410D03*
X1456510Y4762500D03*
X1206500D03*
X6917510Y4826000D03*
X6667500D03*
X8318500Y4762500D03*
X8890000Y2155010D03*
Y1905000D03*
X8568510Y4762500D03*
G54D12*
G01X-952500Y6337540D02*
Y9842500D01*
X11330940D01*
Y6337540D01*
X-952500D01*
G01Y7051280D02*
X11330940D01*
G01X-672980Y8002510D02*
Y8320010D01*
X-523360D01*
G01X-578490Y8166560D02*
X-672980D01*
G01X-330450Y8320010D02*
X-235970D01*
G01X-283210D02*
Y8002510D01*
G01X-330450D02*
X-235970D01*
G01X55370Y8161260D02*
X134120D01*
Y8066010D01*
X110490Y8034250D01*
X82930Y8013090D01*
X43560Y8002510D01*
X4190Y8013090D01*
X-23370Y8034250D01*
X-46990Y8066010D01*
X-62740Y8103050D01*
X-70620Y8145380D01*
Y8182430D01*
X-62740Y8214170D01*
X-46990Y8251220D01*
X-23370Y8282970D01*
X250Y8304130D01*
X31750Y8320010D01*
X59310D01*
X90800Y8309430D01*
X114430Y8288260D01*
G01X260100Y8320010D02*
Y8092470D01*
X275840Y8044830D01*
X307340Y8013090D01*
X346710Y8002510D01*
X386080Y8013090D01*
X417580Y8044830D01*
X433320Y8092470D01*
Y8320010D01*
G01X582930Y8002510D02*
Y8320010D01*
X681350D01*
X712850Y8304130D01*
X732540Y8282970D01*
X740410Y8240630D01*
X732540Y8198300D01*
X708910Y8171850D01*
X681350Y8155960D01*
X582930D01*
G01X681350D02*
X740410Y8002510D01*
G01X1055370D02*
X897890D01*
Y8320010D01*
X1055370D01*
G01X992380Y8166560D02*
X897890D01*
G01X-952500Y7765020D02*
X11330940D01*
G01X-952500Y8478760D02*
X11330940D01*
G01X-952500Y9192500D02*
X11330940D01*
G01X0Y0D02*
Y6000000D01*
X10000000D01*
Y0D01*
X0D01*
G01X1330960Y8478760D02*
Y6337540D01*
G01X838830Y8716250D02*
X937260Y9033750D01*
X1035690Y8716250D01*
G01X1000250Y8827370D02*
X874260D01*
G01X1173480Y9033750D02*
Y8716250D01*
X1330960D01*
G01X1488440Y9033750D02*
Y8716250D01*
X1645920D01*
G01X2110490Y9033750D02*
Y8806210D01*
X2126230Y8758570D01*
X2157730Y8726830D01*
X2197100Y8716250D01*
X2236470Y8726830D01*
X2267970Y8758570D01*
X2283710Y8806210D01*
Y9033750D01*
G01X2421510Y8716250D02*
Y9033750D01*
X2602610Y8716250D01*
Y9033750D01*
G01X2779780D02*
X2874260D01*
G01X2827020D02*
Y8716250D01*
G01X2779780D02*
X2874260D01*
G01X3141980Y9033750D02*
Y8716250D01*
G01X3051430Y9033750D02*
X3232530D01*
G01X3374260Y8758570D02*
X3405760Y8732120D01*
X3441190Y8716250D01*
X3472690D01*
X3504180Y8732120D01*
X3527810Y8758570D01*
X3539620Y8795630D01*
X3531750Y8832660D01*
X3512060Y8864410D01*
X3476620Y8885590D01*
X3429380Y8896170D01*
X3401820Y8917330D01*
X3390010Y8954370D01*
X3397890Y8991420D01*
X3417570Y9017870D01*
X3445130Y9033750D01*
X3472690D01*
X3500250Y9023170D01*
X3523870Y8996710D01*
G01X3988430Y8716250D02*
X4086860Y9033750D01*
X4185290Y8716250D01*
G01X4149850Y8827370D02*
X4023860D01*
G01X4323080Y8716250D02*
Y9033750D01*
X4421500D01*
X4453000Y9017870D01*
X4472690Y8996710D01*
X4480560Y8954370D01*
X4472690Y8912040D01*
X4449060Y8885590D01*
X4421500Y8869700D01*
X4323080D01*
G01X4421500D02*
X4480560Y8716250D01*
G01X4795520D02*
X4638040D01*
Y9033750D01*
X4795520D01*
G01X4732530Y8880300D02*
X4638040D01*
G01X5299460Y9033750D02*
X5393940D01*
G01X5346700D02*
Y8716250D01*
G01X5299460D02*
X5393940D01*
G01X5571110D02*
Y9033750D01*
X5752210Y8716250D01*
Y9033750D01*
G01X6189210Y8716250D02*
Y9033750D01*
X6291580Y8769170D01*
X6393950Y9033750D01*
Y8716250D01*
G01X6559300Y9033750D02*
X6653780D01*
G01X6606540D02*
Y8716250D01*
G01X6559300D02*
X6653780D01*
G01X6842760Y9033750D02*
Y8716250D01*
X7000240D01*
G01X7157720Y9033750D02*
Y8716250D01*
X7315200D01*
G01X7504180Y9033750D02*
X7598660D01*
G01X7551420D02*
Y8716250D01*
G01X7504180D02*
X7598660D01*
G01X7764010D02*
Y9033750D01*
X7866380Y8769170D01*
X7968750Y9033750D01*
Y8716250D01*
G01X8260080D02*
X8102600D01*
Y9033750D01*
X8260080D01*
G01X8197090Y8880300D02*
X8102600D01*
G01X8496300Y9033750D02*
Y8716250D01*
G01X8405750Y9033750D02*
X8586850D01*
G01X8890000Y8716250D02*
X8732520D01*
Y9033750D01*
X8890000D01*
G01X8827010Y8880300D02*
X8732520D01*
G01X9047480Y8716250D02*
Y9033750D01*
X9145900D01*
X9177400Y9017870D01*
X9197090Y8996710D01*
X9204960Y8954370D01*
X9197090Y8912040D01*
X9173460Y8885590D01*
X9145900Y8869700D01*
X9047480D01*
G01X9145900D02*
X9204960Y8716250D01*
G01X9358500Y8758570D02*
X9390000Y8732120D01*
X9425430Y8716250D01*
X9456930D01*
X9488420Y8732120D01*
X9512050Y8758570D01*
X9523860Y8795630D01*
X9515990Y8832660D01*
X9496300Y8864410D01*
X9460860Y8885590D01*
X9413620Y8896170D01*
X9386060Y8917330D01*
X9374250Y8954370D01*
X9382130Y8991420D01*
X9401810Y9017870D01*
X9429370Y9033750D01*
X9456930D01*
X9484490Y9023170D01*
X9508110Y8996710D01*
G01X1165610Y9366250D02*
Y9683750D01*
X1244340D01*
X1275840Y9667870D01*
X1299460Y9646710D01*
X1319150Y9614960D01*
X1334900Y9577910D01*
X1338830Y9525000D01*
X1334900Y9472080D01*
X1319150Y9435040D01*
X1299460Y9403280D01*
X1275840Y9382120D01*
X1244340Y9366250D01*
X1165610D01*
G01X1488440D02*
Y9683750D01*
X1586860D01*
X1618360Y9667870D01*
X1638050Y9646710D01*
X1645920Y9604370D01*
X1638050Y9562040D01*
X1614420Y9535590D01*
X1586860Y9519700D01*
X1488440D01*
G01X1586860D02*
X1645920Y9366250D01*
G01X1834900Y9683750D02*
X1929380D01*
G01X1882140D02*
Y9366250D01*
G01X1834900D02*
X1929380D01*
G01X2118360Y9683750D02*
Y9366250D01*
X2275840D01*
G01X2433320Y9683750D02*
Y9366250D01*
X2590800D01*
G01X3228590Y9657290D02*
X3204970Y9673170D01*
X3177420Y9683750D01*
X3145920D01*
X3110480Y9667870D01*
X3082930Y9641420D01*
X3063240Y9609660D01*
X3047490Y9556750D01*
X3043550Y9509120D01*
X3051430Y9461500D01*
X3063240Y9429750D01*
X3086860Y9397990D01*
X3114420Y9376830D01*
X3141980Y9366250D01*
X3169540D01*
X3197100Y9376830D01*
X3220720Y9392700D01*
X3240410Y9413860D01*
G01X3374260Y9366250D02*
Y9683750D01*
G01X3539620D02*
Y9366250D01*
G01Y9525000D02*
X3374260D01*
G01X3673470Y9366250D02*
X3771900Y9683750D01*
X3870330Y9366250D01*
G01X3834890Y9477370D02*
X3708900D01*
G01X4008120Y9366250D02*
Y9683750D01*
X4106540D01*
X4138040Y9667870D01*
X4157730Y9646710D01*
X4165600Y9604370D01*
X4157730Y9562040D01*
X4134100Y9535590D01*
X4106540Y9519700D01*
X4008120D01*
G01X4106540D02*
X4165600Y9366250D01*
G01X4401820Y9683750D02*
Y9366250D01*
G01X4311270Y9683750D02*
X4492370D01*
G01X4716780Y9355670D02*
X4708900Y9360960D01*
Y9371540D01*
X4716780Y9376830D01*
X4724660Y9371540D01*
Y9360960D01*
X4716780Y9355670D01*
G01Y9498530D02*
X4708900Y9503830D01*
Y9514410D01*
X4716780Y9519700D01*
X4724660Y9514410D01*
Y9503830D01*
X4716780Y9498530D01*
G01X5346700Y9683750D02*
Y9366250D01*
G01X5256150Y9683750D02*
X5437250D01*
G01X5661660Y9366250D02*
X5630160Y9371540D01*
X5602610Y9392700D01*
X5578980Y9424460D01*
X5563230Y9461500D01*
X5555360Y9503830D01*
Y9546170D01*
X5563230Y9588500D01*
X5578980Y9625540D01*
X5602610Y9657290D01*
X5630160Y9678460D01*
X5661660Y9683750D01*
X5693150Y9678460D01*
X5720710Y9657290D01*
X5744340Y9625540D01*
X5760090Y9588500D01*
X5767960Y9546170D01*
Y9503830D01*
X5760090Y9461500D01*
X5744340Y9424460D01*
X5720710Y9392700D01*
X5693150Y9371540D01*
X5661660Y9366250D01*
G01X5897880D02*
Y9683750D01*
X5992370D01*
X6023860Y9667870D01*
X6047490Y9630830D01*
X6055360Y9588500D01*
X6047490Y9546170D01*
X6027800Y9514410D01*
X5992370Y9498530D01*
X5897880D01*
G01X6606540Y9683750D02*
Y9366250D01*
G01X6551420Y9577910D02*
X6661660D01*
G01X6921500Y9366250D02*
X6897880Y9371540D01*
X6874260Y9392700D01*
X6858500Y9429750D01*
X6850630Y9472080D01*
X6858500Y9514410D01*
X6874260Y9551460D01*
X6897880Y9572620D01*
X6921500Y9577910D01*
X6945120Y9572620D01*
X6968740Y9551460D01*
X6984490Y9514410D01*
X6988430Y9472080D01*
X6984490Y9429750D01*
X6968740Y9392700D01*
X6945120Y9371540D01*
X6921500Y9366250D01*
G01X7582910Y9535590D02*
X7598660Y9551460D01*
X7610470Y9577910D01*
X7618350Y9614960D01*
X7610470Y9646710D01*
X7594730Y9667870D01*
X7567170Y9683750D01*
X7460870D01*
Y9366250D01*
X7590790D01*
X7618350Y9387410D01*
X7634100Y9419170D01*
X7641970Y9456210D01*
X7634100Y9493240D01*
X7610470Y9525000D01*
X7582910Y9535590D01*
X7460870D01*
G01X7866380Y9366250D02*
X7834880Y9371540D01*
X7807330Y9392700D01*
X7783700Y9424460D01*
X7767950Y9461500D01*
X7760080Y9503830D01*
Y9546170D01*
X7767950Y9588500D01*
X7783700Y9625540D01*
X7807330Y9657290D01*
X7834880Y9678460D01*
X7866380Y9683750D01*
X7897870Y9678460D01*
X7925430Y9657290D01*
X7949060Y9625540D01*
X7964810Y9588500D01*
X7972680Y9546170D01*
Y9503830D01*
X7964810Y9461500D01*
X7949060Y9424460D01*
X7925430Y9392700D01*
X7897870Y9371540D01*
X7866380Y9366250D01*
G01X8181340Y9683750D02*
Y9366250D01*
G01X8090790Y9683750D02*
X8271890D01*
G01X8496300D02*
Y9366250D01*
G01X8405750Y9683750D02*
X8586850D01*
G01X8811260Y9366250D02*
X8779760Y9371540D01*
X8752210Y9392700D01*
X8728580Y9424460D01*
X8712830Y9461500D01*
X8704960Y9503830D01*
Y9546170D01*
X8712830Y9588500D01*
X8728580Y9625540D01*
X8752210Y9657290D01*
X8779760Y9678460D01*
X8811260Y9683750D01*
X8842750Y9678460D01*
X8870310Y9657290D01*
X8893940Y9625540D01*
X8909690Y9588500D01*
X8917560Y9546170D01*
Y9503830D01*
X8909690Y9461500D01*
X8893940Y9424460D01*
X8870310Y9392700D01*
X8842750Y9371540D01*
X8811260Y9366250D01*
G01X9023850D02*
Y9683750D01*
X9126220Y9419170D01*
X9228590Y9683750D01*
Y9366250D01*
G01X2945130Y6853160D02*
X2913630Y6842580D01*
X2890010Y6816120D01*
X2874260Y6784370D01*
X2862450Y6742030D01*
X2858520Y6694410D01*
X2862450Y6646780D01*
X2874260Y6604450D01*
X2890010Y6572690D01*
X2913630Y6546240D01*
X2945130Y6535660D01*
X2976620Y6546240D01*
X3000250Y6572690D01*
X3016000Y6604450D01*
X3027810Y6646780D01*
X3031740Y6694410D01*
X3027810Y6742030D01*
X3016000Y6784370D01*
X3000250Y6816120D01*
X2976620Y6842580D01*
X2945130Y6853160D01*
G01X3260090Y6525080D02*
X3252210Y6530370D01*
Y6540950D01*
X3260090Y6546240D01*
X3267970Y6540950D01*
Y6530370D01*
X3260090Y6525080D01*
G01X3508120Y6572690D02*
X3535680Y6546240D01*
X3567170Y6535660D01*
X3598670Y6546240D01*
X3626230Y6577980D01*
X3645920Y6625620D01*
X3653790Y6673240D01*
Y6731450D01*
X3645920Y6779070D01*
X3626230Y6821410D01*
X3602610Y6842580D01*
X3575050Y6853160D01*
X3543550Y6842580D01*
X3519930Y6821410D01*
X3504180Y6789660D01*
X3496310Y6747320D01*
X3504180Y6710290D01*
X3523870Y6673240D01*
X3547490Y6652070D01*
X3575050Y6646780D01*
X3606540Y6657360D01*
X3630170Y6683820D01*
X3653790Y6731450D01*
G01X3823080Y6572690D02*
X3850640Y6546240D01*
X3882130Y6535660D01*
X3913630Y6546240D01*
X3941190Y6577980D01*
X3960880Y6625620D01*
X3968750Y6673240D01*
Y6731450D01*
X3960880Y6779070D01*
X3941190Y6821410D01*
X3917570Y6842580D01*
X3890010Y6853160D01*
X3858510Y6842580D01*
X3834890Y6821410D01*
X3819140Y6789660D01*
X3811270Y6747320D01*
X3819140Y6710290D01*
X3838830Y6673240D01*
X3862450Y6652070D01*
X3890010Y6646780D01*
X3921500Y6657360D01*
X3945130Y6683820D01*
X3968750Y6731450D01*
G01X4204970Y6853160D02*
X4173470Y6842580D01*
X4149850Y6816120D01*
X4134100Y6784370D01*
X4122290Y6742030D01*
X4118360Y6694410D01*
X4122290Y6646780D01*
X4134100Y6604450D01*
X4149850Y6572690D01*
X4173470Y6546240D01*
X4204970Y6535660D01*
X4236460Y6546240D01*
X4260090Y6572690D01*
X4275840Y6604450D01*
X4287650Y6646780D01*
X4291580Y6694410D01*
X4287650Y6742030D01*
X4275840Y6784370D01*
X4260090Y6816120D01*
X4236460Y6842580D01*
X4204970Y6853160D01*
G01X4445120Y6667940D02*
X4472690Y6705000D01*
X4496310Y6726160D01*
X4527810Y6736740D01*
X4555370Y6726160D01*
X4575050Y6705000D01*
X4590800Y6673240D01*
X4594740Y6636200D01*
X4590800Y6604450D01*
X4575050Y6572690D01*
X4551420Y6546240D01*
X4523870Y6535660D01*
X4492370Y6546240D01*
X4464810Y6577980D01*
X4449060Y6625620D01*
X4445120Y6678530D01*
X4453000Y6747320D01*
X4464810Y6784370D01*
X4484490Y6821410D01*
X4512050Y6847870D01*
X4539610Y6853160D01*
X4567170Y6842580D01*
X4586860Y6816120D01*
G01X2945130Y7566900D02*
X2913630Y7556320D01*
X2890010Y7529860D01*
X2874260Y7498110D01*
X2862450Y7455770D01*
X2858520Y7408150D01*
X2862450Y7360520D01*
X2874260Y7318190D01*
X2890010Y7286430D01*
X2913630Y7259980D01*
X2945130Y7249400D01*
X2976620Y7259980D01*
X3000250Y7286430D01*
X3016000Y7318190D01*
X3027810Y7360520D01*
X3031740Y7408150D01*
X3027810Y7455770D01*
X3016000Y7498110D01*
X3000250Y7529860D01*
X2976620Y7556320D01*
X2945130Y7566900D01*
G01X3260090Y7238820D02*
X3252210Y7244110D01*
Y7254690D01*
X3260090Y7259980D01*
X3267970Y7254690D01*
Y7244110D01*
X3260090Y7238820D01*
G01X3488440Y7312900D02*
X3512050Y7275850D01*
X3543550Y7254690D01*
X3578990Y7249400D01*
X3610490Y7254690D01*
X3641980Y7281140D01*
X3661660Y7312900D01*
X3665600Y7344650D01*
X3657730Y7381680D01*
X3630170Y7408150D01*
X3602610Y7418740D01*
X3567170D01*
G01X3602610D02*
X3626230Y7434610D01*
X3645920Y7461060D01*
X3653790Y7492810D01*
X3645920Y7524570D01*
X3626230Y7551020D01*
X3590800Y7566900D01*
X3555370Y7561610D01*
X3519930Y7540440D01*
G01X3803400Y7312900D02*
X3827010Y7275850D01*
X3858510Y7254690D01*
X3893950Y7249400D01*
X3925450Y7254690D01*
X3956940Y7281140D01*
X3976620Y7312900D01*
X3980560Y7344650D01*
X3972690Y7381680D01*
X3945130Y7408150D01*
X3917570Y7418740D01*
X3882130D01*
G01X3917570D02*
X3941190Y7434610D01*
X3960880Y7461060D01*
X3968750Y7492810D01*
X3960880Y7524570D01*
X3941190Y7551020D01*
X3905760Y7566900D01*
X3870330Y7561610D01*
X3834890Y7540440D01*
G01X4204970Y7566900D02*
X4173470Y7556320D01*
X4149850Y7529860D01*
X4134100Y7498110D01*
X4122290Y7455770D01*
X4118360Y7408150D01*
X4122290Y7360520D01*
X4134100Y7318190D01*
X4149850Y7286430D01*
X4173470Y7259980D01*
X4204970Y7249400D01*
X4236460Y7259980D01*
X4260090Y7286430D01*
X4275840Y7318190D01*
X4287650Y7360520D01*
X4291580Y7408150D01*
X4287650Y7455770D01*
X4275840Y7498110D01*
X4260090Y7529860D01*
X4236460Y7556320D01*
X4204970Y7566900D01*
G01X4445120Y7513980D02*
X4468750Y7545730D01*
X4496310Y7561610D01*
X4527810Y7566900D01*
X4567170Y7556320D01*
X4594740Y7529860D01*
X4602610Y7498110D01*
X4598670Y7466350D01*
X4582920Y7439900D01*
X4504180Y7386980D01*
X4468750Y7349940D01*
X4445120Y7297010D01*
X4437250Y7249400D01*
X4602610D01*
G01X3177410Y8044830D02*
X3208910Y8018380D01*
X3244340Y8002510D01*
X3275840D01*
X3307330Y8018380D01*
X3330960Y8044830D01*
X3342770Y8081890D01*
X3334900Y8118920D01*
X3315210Y8150670D01*
X3279770Y8171850D01*
X3232530Y8182430D01*
X3204970Y8203590D01*
X3193160Y8240630D01*
X3201040Y8277680D01*
X3220720Y8304130D01*
X3248280Y8320010D01*
X3275840D01*
X3303400Y8309430D01*
X3327020Y8282970D01*
G01X3527810Y8320010D02*
X3622290D01*
G01X3575050D02*
Y8002510D01*
G01X3527810D02*
X3622290D01*
G01X3815200Y8320010D02*
X3964820D01*
X3815200Y8002510D01*
X3964820D01*
G01X4283710D02*
X4126230D01*
Y8320010D01*
X4283710D01*
G01X4220720Y8166560D02*
X4126230D01*
G01X6134100Y8478760D02*
Y6337540D01*
G01X6882130Y6535660D02*
Y6853160D01*
X6976620D01*
X7008110Y6837280D01*
X7031740Y6800240D01*
X7039610Y6757910D01*
X7031740Y6715580D01*
X7012050Y6683820D01*
X6976620Y6667940D01*
X6882130D01*
G01X7197090Y6853160D02*
Y6535660D01*
X7354570D01*
G01X7492360D02*
X7590790Y6853160D01*
X7689220Y6535660D01*
G01X7653780Y6646780D02*
X7527790D01*
G01X7905750Y6853160D02*
Y6535660D01*
G01X7815200Y6853160D02*
X7996300D01*
G01X8299450Y6535660D02*
X8141970D01*
Y6853160D01*
X8299450D01*
G01X8236460Y6699710D02*
X8141970D01*
G01X8449060Y6535660D02*
Y6853160D01*
X8527790D01*
X8559290Y6837280D01*
X8582910Y6816120D01*
X8602600Y6784370D01*
X8618350Y6747320D01*
X8622280Y6694410D01*
X8618350Y6641490D01*
X8602600Y6604450D01*
X8582910Y6572690D01*
X8559290Y6551530D01*
X8527790Y6535660D01*
X8449060D01*
G01X6882130Y7249400D02*
Y7566900D01*
X6976620D01*
X7008110Y7551020D01*
X7031740Y7513980D01*
X7039610Y7471650D01*
X7031740Y7429320D01*
X7012050Y7397560D01*
X6976620Y7381680D01*
X6882130D01*
G01X7197090Y7566900D02*
Y7249400D01*
X7354570D01*
G01X7492360D02*
X7590790Y7566900D01*
X7689220Y7249400D01*
G01X7653780Y7360520D02*
X7527790D01*
G01X7905750Y7566900D02*
Y7249400D01*
G01X7815200Y7566900D02*
X7996300D01*
G01X8299450Y7249400D02*
X8141970D01*
Y7566900D01*
X8299450D01*
G01X8236460Y7413450D02*
X8141970D01*
G01X8449060Y7249400D02*
Y7566900D01*
X8527790D01*
X8559290Y7551020D01*
X8582910Y7529860D01*
X8602600Y7498110D01*
X8618350Y7461060D01*
X8622280Y7408150D01*
X8618350Y7355230D01*
X8602600Y7318190D01*
X8582910Y7286430D01*
X8559290Y7265270D01*
X8527790Y7249400D01*
X8449060D01*
G01X6882130Y8002510D02*
Y8320010D01*
X6976620D01*
X7008110Y8304130D01*
X7031740Y8267090D01*
X7039610Y8224760D01*
X7031740Y8182430D01*
X7012050Y8150670D01*
X6976620Y8134790D01*
X6882130D01*
G01X7197090Y8320010D02*
Y8002510D01*
X7354570D01*
G01X7492360D02*
X7590790Y8320010D01*
X7689220Y8002510D01*
G01X7653780Y8113630D02*
X7527790D01*
G01X7905750Y8320010D02*
Y8002510D01*
G01X7815200Y8320010D02*
X7996300D01*
G01X8299450Y8002510D02*
X8141970D01*
Y8320010D01*
X8299450D01*
G01X8236460Y8166560D02*
X8141970D01*
G01X8449060Y8002510D02*
Y8320010D01*
X8527790D01*
X8559290Y8304130D01*
X8582910Y8282970D01*
X8602600Y8251220D01*
X8618350Y8214170D01*
X8622280Y8161260D01*
X8618350Y8108340D01*
X8602600Y8071300D01*
X8582910Y8039540D01*
X8559290Y8018380D01*
X8527790Y8002510D01*
X8449060D01*
G01X9362440Y8478760D02*
Y6337540D01*
G01X10031730Y8002510D02*
X10000230Y8007800D01*
X9972680Y8028960D01*
X9949050Y8060720D01*
X9933300Y8097760D01*
X9925430Y8140090D01*
Y8182430D01*
X9933300Y8224760D01*
X9949050Y8261800D01*
X9972680Y8293550D01*
X10000230Y8314720D01*
X10031730Y8320010D01*
X10063220Y8314720D01*
X10090780Y8293550D01*
X10114410Y8261800D01*
X10130160Y8224760D01*
X10138030Y8182430D01*
Y8140090D01*
X10130160Y8097760D01*
X10114410Y8060720D01*
X10090780Y8028960D01*
X10063220Y8007800D01*
X10031730Y8002510D01*
G01X10063220Y8087180D02*
X10110470Y8002510D01*
G01X10346690Y8320010D02*
Y8002510D01*
G01X10256140Y8320010D02*
X10437240D01*
G01X10661650Y8002510D02*
Y8145380D01*
X10582910Y8320010D01*
G01X10740390D02*
X10661650Y8145380D01*
G01X10346690Y6535660D02*
X10374250Y6540950D01*
X10405740Y6556820D01*
X10425430Y6583270D01*
X10433300Y6620330D01*
X10425430Y6657360D01*
X10401810Y6689110D01*
X10366370Y6705000D01*
X10327010D01*
X10303380Y6715580D01*
X10283690Y6742030D01*
X10275820Y6779070D01*
X10287640Y6816120D01*
X10315190Y6842580D01*
X10346690Y6853160D01*
X10378180Y6842580D01*
X10405740Y6816120D01*
X10417560Y6779070D01*
X10409680Y6742030D01*
X10390000Y6715580D01*
X10366370Y6705000D01*
X10327010D01*
X10291570Y6689110D01*
X10267950Y6657360D01*
X10260080Y6620330D01*
X10267950Y6583270D01*
X10287640Y6556820D01*
X10319130Y6540950D01*
X10346690Y6535660D01*
G01X10181330Y7249400D02*
X10189210Y7318190D01*
X10201020Y7376390D01*
X10216770Y7429320D01*
X10236450Y7487520D01*
X10267950Y7566900D01*
X10110470D01*
G01X10417560Y7312900D02*
X10441170Y7275850D01*
X10472670Y7254690D01*
X10508110Y7249400D01*
X10539610Y7254690D01*
X10571100Y7281140D01*
X10590780Y7312900D01*
X10594720Y7344650D01*
X10586850Y7381680D01*
X10559290Y7408150D01*
X10531730Y7418740D01*
X10496290D01*
G01X10531730D02*
X10555350Y7434610D01*
X10575040Y7461060D01*
X10582910Y7492810D01*
X10575040Y7524570D01*
X10555350Y7551020D01*
X10519920Y7566900D01*
X10484490Y7561610D01*
X10449050Y7540440D01*
M02*
