G04 ================== begin FILE IDENTIFICATION RECORD ==================*
G04 Layout Name:  C:/OrCAD/week 11/allegro/WEEK 11 ECG PROJECT.brd*
G04 Film Name:    SM_TOP*
G04 File Format:  Gerber RS274X*
G04 File Origin:  Cadence Allegro 16.6-P004*
G04 Origin Date:  Sun May 16 23:04:50 2021*
G04 *
G04 Layer:  VIA CLASS/SOLDERMASK_TOP*
G04 Layer:  PIN/SOLDERMASK_TOP*
G04 Layer:  DRC ERROR CLASS/SOLDERMASK_TOP*
G04 *
G04 Offset:    (0.0000 0.0000)*
G04 Mirror:    No*
G04 Mode:      Positive*
G04 Rotation:  0*
G04 FullContactRelief:  No*
G04 UndefLineWidth:     0.0000*
G04 ================== end FILE IDENTIFICATION RECORD ====================*
%FSLAX25Y25*MOIN*%
%IR0*IPPOS*OFA0.00000B0.00000*MIA0B0*SFA1.00000B1.00000*%
%ADD13R,.077559X.021969*%
%ADD15R,.020969X.05728*%
%ADD16R,.021969X.06515*%
%ADD10C,.08*%
%ADD12R,.047X.03978*%
%ADD14C,.075*%
%ADD11C,.044*%
%LPD*%
G75*
G54D10*
X40000Y30000D03*
X30000D03*
Y60000D03*
Y70000D03*
X40000Y130000D03*
Y140000D03*
Y207500D03*
Y197500D03*
X27500D03*
Y207500D03*
X60000Y130000D03*
X70000D03*
X90000D03*
X100000D03*
X87500Y210000D03*
X97500D03*
X130000D03*
X140000Y180000D03*
Y170000D03*
Y210000D03*
X200000Y125000D03*
Y135000D03*
Y195000D03*
Y205000D03*
X270000Y40000D03*
X280000D03*
X317500Y75000D03*
Y65000D03*
G54D11*
X37500Y37500D03*
X32500Y157500D03*
X47500Y155000D03*
X32500Y177500D03*
Y167500D03*
X47500Y177500D03*
Y185000D03*
Y167500D03*
X27500Y187500D03*
X50000Y26661D03*
Y67500D03*
X52500Y77500D03*
X60000Y142500D03*
X52500Y137500D03*
Y167500D03*
Y200000D03*
X90000Y100000D03*
X97500Y96661D03*
X90000Y110000D03*
Y117500D03*
X100000Y122500D03*
X102500Y115000D03*
X117500Y37500D03*
X112500Y30000D03*
Y67500D03*
X107500Y77500D03*
X120000D03*
X125000Y96661D03*
X112500Y122500D03*
X120000Y115000D03*
X117500Y137500D03*
X112500Y132500D03*
X117500Y177500D03*
Y160000D03*
X112500Y167500D03*
Y185000D03*
X107500Y165000D03*
X122500Y205000D03*
Y187500D03*
X157500Y50000D03*
X150000Y90000D03*
X140000Y100000D03*
Y110000D03*
X155000Y135000D03*
X132500Y147500D03*
X137500Y160000D03*
X132500Y182500D03*
X150000Y205000D03*
X155000Y186108D03*
X180000Y37500D03*
X170000Y135000D03*
X175000Y160000D03*
X190000Y90000D03*
X212500Y147500D03*
Y178339D03*
Y170000D03*
X210000Y205000D03*
X230000Y42500D03*
Y52500D03*
X222500Y92500D03*
X230000Y107500D03*
Y125000D03*
X225000Y150000D03*
Y140000D03*
X235000Y180000D03*
Y190000D03*
X225000Y195000D03*
X260000Y47500D03*
X255000Y40000D03*
Y60000D03*
X252500Y93214D03*
X245000Y92500D03*
X262500Y107500D03*
X252500Y115000D03*
X295000Y100000D03*
Y87500D03*
X277500Y107500D03*
Y117500D03*
X275000Y145000D03*
Y210000D03*
Y195000D03*
X305000Y100000D03*
X312500Y195000D03*
X330000Y117500D03*
X350000Y195000D03*
G54D12*
X40000Y171661D03*
Y178339D03*
X27500Y171661D03*
Y178339D03*
X130000Y96661D03*
Y103339D03*
X125000Y146661D03*
Y153339D03*
Y173339D03*
Y166661D03*
Y198339D03*
Y191661D03*
X150000Y33339D03*
Y26661D03*
Y63339D03*
Y56661D03*
Y96661D03*
Y76661D03*
Y83339D03*
Y103339D03*
X155000Y153339D03*
Y146661D03*
Y173339D03*
Y166661D03*
X140000Y198339D03*
Y191661D03*
X155000D03*
Y198339D03*
X170000Y33339D03*
Y26661D03*
X200000Y171661D03*
Y178339D03*
G54D13*
X61535Y52500D03*
Y57500D03*
Y62500D03*
Y67500D03*
Y72500D03*
Y77500D03*
Y82500D03*
Y87500D03*
Y152500D03*
Y157500D03*
Y162500D03*
Y167500D03*
Y172500D03*
Y177500D03*
Y182500D03*
Y187500D03*
X98465Y72500D03*
Y67500D03*
Y62500D03*
Y57500D03*
Y52500D03*
Y87500D03*
Y82500D03*
Y77500D03*
Y152500D03*
Y182500D03*
Y177500D03*
Y172500D03*
Y167500D03*
Y162500D03*
Y157500D03*
Y187500D03*
G54D14*
X127500Y75000D03*
X137500D03*
X200000Y80000D03*
X190000D03*
X245000Y195000D03*
Y205000D03*
X340000Y210000D03*
X350000D03*
G54D15*
X282500Y71786D03*
X277500D03*
X272500D03*
X267500D03*
Y93214D03*
X272500D03*
X277500D03*
X282500D03*
G54D16*
X285000Y163892D03*
X280000D03*
X275000D03*
X270000D03*
Y186108D03*
X275000D03*
X280000D03*
X285000D03*
M02*
