M48
INCH
T01C.013
T02C.036
T03C.042
;LEADER: 12 
;HEADER: 
;CODE  : ASCII 
;FILE  : WEEK 11 ECG PROJECT-1-2.drl for board #Taaaaaf18068.tmp ... layers TOP and BOTTOM
;T01 Holesize 1. = 13.000000 Tolerance = +0.000000/-0.000000 PLATED MILS Quantity = 85
;T02 Holesize 2. = 36.000000 Tolerance = +0.000000/-0.000000 PLATED MILS Quantity = 8
;T03 Holesize 3. = 42.000000 Tolerance = +0.000000/-0.000000 PLATED MILS Quantity = 28
%
G90
T01
X00000375Y00000375
X00000325Y00001575
X00000325Y00001675
X00000325Y00001775
X00000275Y00001875
X00000525Y00002000
X00000475Y00001850
X00000475Y00001775
X00000525Y00001675
X00000475Y00001675
X00000475Y00001550
X00000600Y00001425
X00000525Y00001375
X00000525Y00000775
X00000500Y00000675
X00000500Y00000267
X00001125Y00000300
X00001175Y00000375
X00001125Y00000675
X00001075Y00000775
X00000975Y00000967
X00000900Y00001000
X00000900Y00001100
X00001025Y00001150
X00000900Y00001175
X00001125Y00001225
X00001000Y00001225
X00001125Y00001325
X00001175Y00001375
X00001175Y00001600
X00001075Y00001650
X00001125Y00001675
X00001175Y00001775
X00001125Y00001850
X00001225Y00002050
X00001500Y00002050
X00001225Y00001875
X00001550Y00001861
X00001325Y00001825
X00001375Y00001600
X00001325Y00001475
X00001550Y00001350
X00001200Y00001150
X00001400Y00001100
X00001400Y00001000
X00001250Y00000967
X00001500Y00000900
X00001200Y00000775
X00001575Y00000500
X00001800Y00000375
X00001900Y00000900
X00001700Y00001350
X00001750Y00001600
X00002100Y00002050
X00002250Y00001950
X00002350Y00001900
X00002350Y00001800
X00002125Y00001783
X00002125Y00001700
X00002250Y00001500
X00002125Y00001475
X00002250Y00001400
X00002300Y00001250
X00002300Y00001075
X00002225Y00000925
X00002300Y00000525
X00002300Y00000425
X00002550Y00000400
X00002600Y00000475
X00002550Y00000600
X00002450Y00000925
X00002525Y00000932
X00002775Y00001075
X00002625Y00001075
X00002525Y00001150
X00002775Y00001175
X00002750Y00001450
X00002750Y00001950
X00002750Y00002100
X00003125Y00001950
X00003050Y00001000
X00002950Y00001000
X00002950Y00000875
X00003300Y00001175
X00003500Y00001950
T02
X00001275Y00000750
X00001375Y00000750
X00001900Y00000800
X00002000Y00000800
X00002450Y00001950
X00002450Y00002050
X00003400Y00002100
X00003500Y00002100
T03
X00000300Y00000300
X00000400Y00000300
X00000300Y00000600
X00000300Y00000700
X00000400Y00001300
X00000400Y00001400
X00000400Y00001975
X00000275Y00001975
X00000400Y00002075
X00000275Y00002075
X00000875Y00002100
X00000975Y00002100
X00001000Y00001300
X00000900Y00001300
X00000600Y00001300
X00000700Y00001300
X00001400Y00001700
X00001400Y00001800
X00001300Y00002100
X00001400Y00002100
X00002000Y00002050
X00002000Y00001950
X00002000Y00001350
X00002000Y00001250
X00002700Y00000400
X00002800Y00000400
X00003175Y00000650
X00003175Y00000750
M30
