G04 ================== begin FILE IDENTIFICATION RECORD ==================*
G04 Layout Name:  C:/OrCAD/week 11/allegro/WEEK 11 ECG PROJECT new type 1.brd*
G04 Film Name:    BOTTOM*
G04 File Format:  Gerber RS274X*
G04 File Origin:  Cadence Allegro 16.6-P004*
G04 Origin Date:  Sun May 23 19:35:43 2021*
G04 *
G04 Layer:  ETCH/BOTTOM*
G04 Layer:  PIN/BOTTOM*
G04 Layer:  VIA CLASS/BOTTOM*
G04 *
G04 Offset:    (0.0000 0.0000)*
G04 Mirror:    No*
G04 Mode:      Positive*
G04 Rotation:  0*
G04 FullContactRelief:  No*
G04 UndefLineWidth:     0.0000*
G04 ================== end FILE IDENTIFICATION RECORD ====================*
%FSLAX25Y25*MOMM*%
%IR0*IPPOS*OFA0.00000B0.00000*MIA0B0*SFA1.00000B1.00000*%
%ADD10C,.6096*%
%ADD11C,1.4986*%
%ADD12C,.3*%
G75*
%LPD*%
G75*
G54D10*
X762000Y2857500D03*
X1143000Y1587500D03*
X1460500Y952500D03*
Y2095500D03*
X1143000Y1841500D03*
X1587500Y1651000D03*
X1524000Y2349500D03*
X1016000Y2413000D03*
X1524000Y3556000D03*
X1778000Y952500D03*
X1968500Y1968500D03*
X1714500Y1651000D03*
X1968500Y2222500D03*
Y2349500D03*
X2032000Y3111500D03*
Y2857500D03*
X1778000Y3683000D03*
X2095500Y3302000D03*
X1968500Y4254500D03*
Y3937000D03*
X2286000Y4699000D03*
Y4889500D03*
X2603500Y2794000D03*
X3048000Y2857500D03*
X3683000Y1587500D03*
X3365500Y1397000D03*
X3873500D03*
X3492500Y1460500D03*
X3556000Y1905000D03*
X3810000D03*
X3619500Y1778000D03*
Y2032000D03*
X3492500Y1651000D03*
X3810000Y2603500D03*
X3492500D03*
X3746500Y2730500D03*
X3619500Y3048000D03*
X3556000Y3873500D03*
Y4000500D03*
X3810000Y4254500D03*
X3492500Y4508500D03*
X3810000Y5207000D03*
X3492500Y5080000D03*
X4381500Y1016000D03*
X3937000Y2984500D03*
X4127500D03*
X4508500Y3873500D03*
X4318000Y4381500D03*
X4127500D03*
X4508500Y4064000D03*
Y5016500D03*
X4699000Y2730500D03*
X5207000Y3302000D03*
Y3873500D03*
Y4127500D03*
X5080000Y4000500D03*
X6032500Y3238500D03*
X6604000Y1968500D03*
Y1714500D03*
X7556500Y1587500D03*
X7683500D03*
X7810500Y1460500D03*
Y2222500D03*
X7937500Y2032000D03*
Y1841500D03*
Y3492500D03*
Y3937000D03*
X9080500Y3619500D03*
Y3302000D03*
X8699500Y4127500D03*
X9398000Y3492500D03*
G54D11*
X1456510Y4762500D03*
X1206500D03*
X6917510Y4826000D03*
X6667500D03*
X8318500Y4762500D03*
X8890000Y2155010D03*
Y1905000D03*
X8568510Y4762500D03*
G54D12*
G01X3492500Y2603500D02*
X1714500D01*
Y2857500D01*
X762000D01*
G01X1460500Y952500D02*
X1778000D01*
G01X1460500Y2095500D02*
X1841500D01*
X1968500Y1968500D01*
G01X1143000Y1587500D02*
Y1841500D01*
G01X1968500Y2222500D02*
X1905000Y2159000D01*
X1206500D01*
Y2413000D01*
X1016000D01*
G01X1968500Y2349500D02*
X1524000D01*
G01Y3556000D02*
X1587500D01*
X2032000Y3111500D01*
G01X1714500Y1651000D02*
X1587500D01*
G01X2032000Y3111500D02*
Y2857500D01*
G01X1778000Y3683000D02*
Y3429000D01*
X5334000D01*
Y4127500D01*
X8699500D01*
G01X5207000Y3302000D02*
X2095500D01*
G01X1968500Y3937000D02*
Y4254500D01*
G01X2286000Y4889500D02*
Y4699000D01*
G01X6032500Y3238500D02*
X2603500D01*
Y2794000D01*
G01X3619500Y3048000D02*
X3048000D01*
Y2857500D01*
G01X3365500Y1397000D02*
X3683000D01*
G01D02*
Y1587500D01*
G01X4381500Y1016000D02*
X3683000D01*
Y1397000D01*
G01X3492500Y1460500D02*
Y1651000D01*
G01X3810000Y1905000D02*
X3556000D01*
G01X3619500Y1778000D02*
X3873500D01*
Y1397000D01*
G01X3619500Y3048000D02*
Y2032000D01*
G01X3810000Y2603500D02*
X9398000D01*
Y3492500D01*
G01X4699000Y2730500D02*
X3746500D01*
G01X5080000Y4000500D02*
X3556000D01*
G01X3810000Y4254500D02*
Y5207000D01*
G01X3556000Y3873500D02*
X4508500D01*
G01X3492500Y5080000D02*
Y4508500D01*
G01X4127500Y2984500D02*
X3937000D01*
G01X4127500Y4381500D02*
X4318000D01*
G01X4508500Y4064000D02*
Y5016500D01*
G01X5207000Y4127500D02*
Y3873500D01*
G01X6604000Y1714500D02*
Y1968500D01*
G01X7683500Y1587500D02*
X7556500D01*
G01X7810500Y2222500D02*
Y1460500D01*
G01X7937500Y1841500D02*
Y2032000D01*
G01Y3937000D02*
Y3492500D01*
G01X9080500Y3302000D02*
Y3619500D01*
M02*
