G04 ================== begin FILE IDENTIFICATION RECORD ==================*
G04 Layout Name:  C:/OrCAD/week 11/allegro/WEEK 11 ECG PROJECT new type 1.brd*
G04 Film Name:    SILK_TOP*
G04 File Format:  Gerber RS274X*
G04 File Origin:  Cadence Allegro 16.6-P004*
G04 Origin Date:  Sun May 23 19:35:43 2021*
G04 *
G04 Layer:  REF DES/SILKSCREEN_TOP*
G04 Layer:  PACKAGE GEOMETRY/SILKSCREEN_TOP*
G04 Layer:  BOARD GEOMETRY/OUTLINE*
G04 Layer:  BOARD GEOMETRY/DIMENSION*
G04 Layer:  BOARD GEOMETRY/SILKSCREEN_TOP*
G04 *
G04 Offset:    (0.0000 0.0000)*
G04 Mirror:    No*
G04 Mode:      Positive*
G04 Rotation:  0*
G04 FullContactRelief:  No*
G04 UndefLineWidth:     1.0000*
G04 ================== end FILE IDENTIFICATION RECORD ====================*
%FSLAX25Y25*MOMM*%
%IR0*IPPOS*OFA0.00000B0.00000*MIA0B0*SFA1.00000B1.00000*%
%ADD10C,.1524*%
%ADD11C,.508*%
%ADD12C,1.*%
G75*
%LPD*%
G75*
G36*
G01X3285740Y1416050D02*
Y1377950D01*
X3260340D01*
Y1416050D01*
X3285740D01*
G37*
G36*
G01X3349240Y3765550D02*
Y3727450D01*
X3323840D01*
Y3765550D01*
X3349240D01*
G37*
G54D10*
G01X839220Y1985010D02*
X811780D01*
G01Y1824990D02*
X839220D01*
G01X618490Y1905000D02*
G03I-7620J0D01*
G01X808990Y2222500D02*
G03I-7620J0D01*
G01X839220Y2683510D02*
X811780D01*
G01Y2523490D02*
X839220D01*
G01X618490Y2603500D02*
G03I-7620J0D01*
G01X1220220Y1350010D02*
X1192780D01*
G01Y1189990D02*
X1220220D01*
G01X999490Y1270000D02*
G03I-7620J0D01*
G01X1029720Y2302510D02*
X1002280D01*
G01Y2142490D02*
X1029720D01*
G01X1410720Y1985010D02*
X1383280D01*
G01Y1824990D02*
X1410720D01*
G01X1189990Y1905000D02*
G03I-7620J0D01*
G01X1410720Y2683510D02*
X1383280D01*
G01Y2523490D02*
X1410720D01*
G01X1189990Y2603500D02*
G03I-7620J0D01*
G01X1002280Y3221990D02*
X1029720D01*
G01Y3382010D02*
X1002280D01*
G01X1238250Y3302000D02*
G03I-7620J0D01*
G01X1573780Y3793490D02*
X1601220D01*
G01X949200Y4515610D02*
X1718820D01*
Y5120130D01*
X949200D01*
Y4515610D01*
G01X1601220Y3953510D02*
X1573780D01*
G01X1380490Y3873500D02*
G03I-7620J0D01*
G01X2279400Y1208790D02*
Y1186690D01*
X3054600D01*
Y1208790D01*
G01Y2220210D02*
Y2242310D01*
X2279400D01*
Y2220210D01*
G01X2299720Y2874010D02*
X2272280D01*
G01Y2713990D02*
X2299720D01*
G01X2078990Y2794000D02*
G03I-7620J0D01*
G01X2780280Y2459990D02*
X2807720D01*
G01Y2620010D02*
X2780280D01*
G01X3016250Y2540000D02*
G03I-7620J0D01*
G01X3094990Y2794000D02*
G03I-7620J0D01*
G01X2342900Y3558290D02*
Y3536190D01*
X3118100D01*
Y3558290D01*
G01Y4569710D02*
Y4591810D01*
X2342900D01*
Y4569710D01*
G01X3315720Y2874010D02*
X3288280D01*
G01Y2713990D02*
X3315720D01*
G01X4113780Y1443990D02*
X4141220D01*
G01X4349750Y1524000D02*
G03I-7620J0D01*
G01X4141220Y1223010D02*
X4113780D01*
G01Y1062990D02*
X4141220D01*
G01X3920490Y1143000D02*
G03I-7620J0D01*
G01X4141220Y1604010D02*
X4113780D01*
G01X4141220Y2112010D02*
X4113780D01*
G01Y1951990D02*
X4141220D01*
G01X3920490Y2032000D02*
G03I-7620J0D01*
G01X4113780Y2396490D02*
X4141220D01*
G01Y2556510D02*
X4113780D01*
G01X4349750Y2476500D02*
G03I-7620J0D01*
G01X4141220Y3699510D02*
X4113780D01*
G01Y3539490D02*
X4141220D01*
G01X3920490Y3619500D02*
G03I-7620J0D01*
G01X4113780Y4936490D02*
X4141220D01*
G01Y5096510D02*
X4113780D01*
G01X4349750Y5016500D02*
G03I-7620J0D01*
G01X4685280Y1443990D02*
X4712720D01*
G01X4921250Y1524000D02*
G03I-7620J0D01*
G01X4712720Y1604010D02*
X4685280D01*
G01Y1951990D02*
X4712720D01*
G01Y2112010D02*
X4685280D01*
G01X4921250Y2032000D02*
G03I-7620J0D01*
G01X4685280Y2396490D02*
X4712720D01*
G01Y2556510D02*
X4685280D01*
G01X4921250Y2476500D02*
G03I-7620J0D01*
G01X4685280Y2904490D02*
X4712720D01*
G01Y3064510D02*
X4685280D01*
G01X4921250Y2984500D02*
G03I-7620J0D01*
G01X5066280Y4491990D02*
X5093720D01*
G01X4872990Y4572000D02*
G03I-7620J0D01*
G01X5093720Y4652010D02*
X5066280D01*
G01X5093720Y5096510D02*
X5066280D01*
G01Y4936490D02*
X5093720D01*
G01X4872990Y5016500D02*
G03I-7620J0D01*
G01X5764780Y1507490D02*
X5792220D01*
G01X5764780Y1951990D02*
X5792220D01*
G01Y2112010D02*
X5764780D01*
G01X6000750Y2032000D02*
G03I-7620J0D01*
G01X5792220Y1667510D02*
X5764780D01*
G01X6000750Y1587500D02*
G03I-7620J0D01*
G01X5637780Y4491990D02*
X5665220D01*
G01X5444490Y4572000D02*
G03I-7620J0D01*
G01X5665220Y4652010D02*
X5637780D01*
G01X5665220Y5096510D02*
X5637780D01*
G01Y4936490D02*
X5665220D01*
G01X5444490Y5016500D02*
G03I-7620J0D01*
G01X6466840Y1897630D02*
Y2039370D01*
G01X6233160D02*
Y1897630D01*
G01X7324090Y2294890D02*
X6899910D01*
G01Y1769110D02*
X7324090D01*
G01X6410200Y4579110D02*
X7179820D01*
Y5183630D01*
X6410200D01*
Y4579110D01*
G01X7182870Y1386840D02*
X7041130D01*
G01Y1153160D02*
X7182870D01*
G01X8657590Y3818890D02*
X8233410D01*
G01Y3293110D02*
X8657590D01*
G01X8061200Y4515610D02*
X8830820D01*
Y5120130D01*
X8061200D01*
Y4515610D01*
G01X9136890Y1647700D02*
Y2417320D01*
X8532370D01*
Y1647700D01*
X9136890D01*
G01X9190990Y4014220D02*
Y3986780D01*
G01X9351010D02*
Y4014220D01*
G01X9278620Y4215130D02*
G03I-7620J0D01*
G54D11*
G01X923800Y4762500D02*
G03I-38102J0D01*
G01X6384800Y4826000D02*
G03I-38102J0D01*
G01X8035800Y4762500D02*
G03I-38102J0D01*
G01X8928100Y1584200D02*
G03I-38100J-2D01*
G54D12*
G01X0Y0D02*
Y6000000D01*
X10000000D01*
Y0D01*
X0D01*
G01X796120Y1957920D02*
X786470Y1964270D01*
X775210Y1968500D01*
X762340D01*
X747860Y1962150D01*
X736600Y1951570D01*
X728560Y1938870D01*
X722120Y1917700D01*
X720510Y1898650D01*
X723730Y1879600D01*
X728560Y1866900D01*
X738210Y1854200D01*
X749470Y1845730D01*
X760730Y1841500D01*
X771990D01*
X783250Y1845730D01*
X792900Y1852080D01*
X800950Y1860550D01*
G01X859700Y1947330D02*
X869360Y1960030D01*
X880620Y1966380D01*
X893490Y1968500D01*
X909570Y1964270D01*
X920840Y1953680D01*
X924050Y1940990D01*
X922440Y1928280D01*
X916010Y1917700D01*
X883840Y1896530D01*
X869360Y1881720D01*
X859700Y1860550D01*
X856490Y1841500D01*
X924050D01*
G01X728560Y2540000D02*
Y2667000D01*
X768770D01*
X781640Y2660650D01*
X789690Y2652180D01*
X792900Y2635250D01*
X789690Y2618320D01*
X780030Y2607730D01*
X768770Y2601380D01*
X728560D01*
G01X768770D02*
X792900Y2540000D01*
G01X890270D02*
Y2667000D01*
X870970Y2641600D01*
G01Y2540000D02*
X909570D01*
G01X1177120Y1322920D02*
X1167470Y1329270D01*
X1156210Y1333500D01*
X1143340D01*
X1128860Y1327150D01*
X1117600Y1316570D01*
X1109560Y1303870D01*
X1103120Y1282700D01*
X1101510Y1263650D01*
X1104730Y1244600D01*
X1109560Y1231900D01*
X1119210Y1219200D01*
X1130470Y1210730D01*
X1141730Y1206500D01*
X1152990D01*
X1164250Y1210730D01*
X1173900Y1217080D01*
X1181950Y1225550D01*
G01X1290570Y1206500D02*
Y1333500D01*
X1231050Y1242480D01*
X1311490D01*
G01X986620Y2275420D02*
X976970Y2281770D01*
X965710Y2286000D01*
X952840D01*
X938360Y2279650D01*
X927100Y2269070D01*
X919060Y2256370D01*
X912620Y2235200D01*
X911010Y2216150D01*
X914230Y2197100D01*
X919060Y2184400D01*
X928710Y2171700D01*
X939970Y2163230D01*
X951230Y2159000D01*
X962490D01*
X973750Y2163230D01*
X983400Y2169580D01*
X991450Y2178050D01*
G01X1045380Y2184400D02*
X1055030Y2169580D01*
X1067900Y2161120D01*
X1082380Y2159000D01*
X1095250Y2161120D01*
X1108120Y2171700D01*
X1116160Y2184400D01*
X1117770Y2197100D01*
X1114550Y2211910D01*
X1103290Y2222500D01*
X1092030Y2226730D01*
X1077550D01*
G01X1092030D02*
X1101680Y2233080D01*
X1109730Y2243660D01*
X1112940Y2256370D01*
X1109730Y2269070D01*
X1101680Y2279650D01*
X1087200Y2286000D01*
X1072730Y2283880D01*
X1058250Y2275420D01*
G01X1300060Y1841500D02*
Y1968500D01*
X1340270D01*
X1353140Y1962150D01*
X1361190Y1953680D01*
X1364400Y1936750D01*
X1361190Y1919820D01*
X1351530Y1909230D01*
X1340270Y1902880D01*
X1300060D01*
G01X1340270D02*
X1364400Y1841500D01*
G01X1481070D02*
Y1968500D01*
X1421550Y1877480D01*
X1501990D01*
G01X1300060Y2540000D02*
Y2667000D01*
X1340270D01*
X1353140Y2660650D01*
X1361190Y2652180D01*
X1364400Y2635250D01*
X1361190Y2618320D01*
X1351530Y2607730D01*
X1340270Y2601380D01*
X1300060D01*
G01X1340270D02*
X1364400Y2540000D01*
G01X1426380Y2559050D02*
X1436030Y2548460D01*
X1447290Y2542120D01*
X1461770Y2540000D01*
X1476250Y2544230D01*
X1487510Y2552700D01*
X1495550Y2567510D01*
X1497160Y2584450D01*
X1493940Y2601380D01*
X1485900Y2611970D01*
X1474640Y2620430D01*
X1463380Y2622550D01*
X1452120Y2620430D01*
X1437640Y2611970D01*
X1442470Y2667000D01*
X1485900D01*
G01X1112940Y3365500D02*
Y3238500D01*
X1072730D01*
X1059860Y3244850D01*
X1051810Y3253320D01*
X1048600Y3270250D01*
X1051810Y3287180D01*
X1061470Y3297770D01*
X1072730Y3304120D01*
X1112940D01*
G01X1072730D02*
X1048600Y3365500D01*
G01X981800Y3259670D02*
X972140Y3246970D01*
X960880Y3240620D01*
X948010Y3238500D01*
X931930Y3242730D01*
X920660Y3253320D01*
X917450Y3266010D01*
X919060Y3278720D01*
X925490Y3289300D01*
X957660Y3310470D01*
X972140Y3325280D01*
X981800Y3346450D01*
X985010Y3365500D01*
X917450D01*
G01X1490560Y3810000D02*
Y3937000D01*
X1530770D01*
X1543640Y3930650D01*
X1551690Y3922180D01*
X1554900Y3905250D01*
X1551690Y3888320D01*
X1542030Y3877730D01*
X1530770Y3871380D01*
X1490560D01*
G01X1530770D02*
X1554900Y3810000D01*
G01X1621700Y3862910D02*
X1632970Y3877730D01*
X1642620Y3886200D01*
X1655490Y3890430D01*
X1666750Y3886200D01*
X1674790Y3877730D01*
X1681230Y3865030D01*
X1682840Y3850220D01*
X1681230Y3837510D01*
X1674790Y3824810D01*
X1665140Y3814230D01*
X1653880Y3810000D01*
X1641010Y3814230D01*
X1629750Y3826930D01*
X1623310Y3845980D01*
X1621700Y3867150D01*
X1624920Y3894660D01*
X1629750Y3909490D01*
X1637790Y3924300D01*
X1649050Y3934880D01*
X1660310Y3937000D01*
X1671570Y3932770D01*
X1679620Y3922180D01*
G01X1237070Y4724400D02*
X1245110Y4711700D01*
X1254760Y4703230D01*
X1266020Y4699000D01*
X1278890Y4703230D01*
X1288540Y4711700D01*
X1298200Y4724400D01*
X1301410Y4741330D01*
Y4826000D01*
G01X1368210Y4804830D02*
X1377870Y4817530D01*
X1389130Y4823880D01*
X1402000Y4826000D01*
X1418080Y4821770D01*
X1429350Y4811180D01*
X1432560Y4798490D01*
X1430950Y4785780D01*
X1424520Y4775200D01*
X1392350Y4754030D01*
X1377870Y4739220D01*
X1368210Y4718050D01*
X1365000Y4699000D01*
X1432560D01*
G01X2153580Y2198200D02*
X2224360Y2291330D01*
G01X2188970Y2308260D02*
Y2181260D01*
G01X2224360Y2198200D02*
X2153580Y2291330D01*
G01X2140710Y2244760D02*
X2237230D01*
G01X2189060Y2730500D02*
Y2857500D01*
X2229270D01*
X2242140Y2851150D01*
X2250190Y2842680D01*
X2253400Y2825750D01*
X2250190Y2808820D01*
X2240530Y2798230D01*
X2229270Y2791880D01*
X2189060D01*
G01X2229270D02*
X2253400Y2730500D01*
G01X2315380Y2755900D02*
X2325030Y2741080D01*
X2337900Y2732620D01*
X2352380Y2730500D01*
X2365250Y2732620D01*
X2378120Y2743200D01*
X2386160Y2755900D01*
X2387770Y2768600D01*
X2384550Y2783410D01*
X2373290Y2794000D01*
X2362030Y2798230D01*
X2347550D01*
G01X2362030D02*
X2371680Y2804580D01*
X2379730Y2815160D01*
X2382940Y2827870D01*
X2379730Y2840570D01*
X2371680Y2851150D01*
X2357200Y2857500D01*
X2342730Y2855380D01*
X2328250Y2846920D01*
G01X2217080Y4547700D02*
X2287860Y4640830D01*
G01X2252470Y4657760D02*
Y4530760D01*
G01X2287860Y4547700D02*
X2217080Y4640830D01*
G01X2204210Y4594260D02*
X2300730D01*
G01X2566840Y1778000D02*
Y1686980D01*
X2573270Y1667930D01*
X2586140Y1655230D01*
X2602230Y1651000D01*
X2618320Y1655230D01*
X2631190Y1667930D01*
X2637620Y1686980D01*
Y1778000D01*
G01X2701200Y1756830D02*
X2710860Y1769530D01*
X2722120Y1775880D01*
X2734990Y1778000D01*
X2751070Y1773770D01*
X2762340Y1763180D01*
X2765550Y1750490D01*
X2763940Y1737780D01*
X2757510Y1727200D01*
X2725340Y1706030D01*
X2710860Y1691220D01*
X2701200Y1670050D01*
X2697990Y1651000D01*
X2765550D01*
G01X2823380Y2487080D02*
X2833030Y2480730D01*
X2844290Y2476500D01*
X2857160D01*
X2871640Y2482850D01*
X2882900Y2493430D01*
X2890940Y2506130D01*
X2897380Y2527300D01*
X2898990Y2546350D01*
X2895770Y2565400D01*
X2890940Y2578100D01*
X2881290Y2590800D01*
X2870030Y2599270D01*
X2858770Y2603500D01*
X2847510D01*
X2836250Y2599270D01*
X2826600Y2592920D01*
X2818550Y2584450D01*
G01X2764620D02*
X2754970Y2595040D01*
X2743710Y2601380D01*
X2729230Y2603500D01*
X2714750Y2599270D01*
X2703490Y2590800D01*
X2695450Y2575990D01*
X2693840Y2559050D01*
X2697060Y2542120D01*
X2705100Y2531530D01*
X2716360Y2523070D01*
X2727620Y2520950D01*
X2738880Y2523070D01*
X2753360Y2531530D01*
X2748530Y2476500D01*
X2705100D01*
G01X2630340Y4127500D02*
Y4036480D01*
X2636770Y4017430D01*
X2649640Y4004730D01*
X2665730Y4000500D01*
X2681820Y4004730D01*
X2694690Y4017430D01*
X2701120Y4036480D01*
Y4127500D01*
G01X2759880Y4025900D02*
X2769530Y4011080D01*
X2782400Y4002620D01*
X2796880Y4000500D01*
X2809750Y4002620D01*
X2822620Y4013200D01*
X2830660Y4025900D01*
X2832270Y4038600D01*
X2829050Y4053410D01*
X2817790Y4064000D01*
X2806530Y4068230D01*
X2792050D01*
G01X2806530D02*
X2816180Y4074580D01*
X2824230Y4085160D01*
X2827440Y4097870D01*
X2824230Y4110570D01*
X2816180Y4121150D01*
X2801700Y4127500D01*
X2787230Y4125380D01*
X2772750Y4116920D01*
G01X3272620Y2846920D02*
X3262970Y2853270D01*
X3251710Y2857500D01*
X3238840D01*
X3224360Y2851150D01*
X3213100Y2840570D01*
X3205060Y2827870D01*
X3198620Y2806700D01*
X3197010Y2787650D01*
X3200230Y2768600D01*
X3205060Y2755900D01*
X3214710Y2743200D01*
X3225970Y2734730D01*
X3237230Y2730500D01*
X3248490D01*
X3259750Y2734730D01*
X3269400Y2741080D01*
X3277450Y2749550D01*
G01X3336200Y2783410D02*
X3347470Y2798230D01*
X3357120Y2806700D01*
X3369990Y2810930D01*
X3381250Y2806700D01*
X3389290Y2798230D01*
X3395730Y2785530D01*
X3397340Y2770720D01*
X3395730Y2758010D01*
X3389290Y2745310D01*
X3379640Y2734730D01*
X3368380Y2730500D01*
X3355510Y2734730D01*
X3344250Y2747430D01*
X3337810Y2766480D01*
X3336200Y2787650D01*
X3339420Y2815160D01*
X3344250Y2829990D01*
X3352290Y2844800D01*
X3363550Y2855380D01*
X3374810Y2857500D01*
X3386070Y2853270D01*
X3394120Y2842680D01*
G01X4728380Y1471080D02*
X4738030Y1464730D01*
X4749290Y1460500D01*
X4762160D01*
X4776640Y1466850D01*
X4787900Y1477430D01*
X4795940Y1490130D01*
X4802380Y1511300D01*
X4803990Y1530350D01*
X4800770Y1549400D01*
X4795940Y1562100D01*
X4786290Y1574800D01*
X4775030Y1583270D01*
X4763770Y1587500D01*
X4752510D01*
X4741250Y1583270D01*
X4731600Y1576920D01*
X4723550Y1568450D01*
G01X4661580Y1572690D02*
X4650320Y1583270D01*
X4637450Y1587500D01*
X4624580Y1583270D01*
X4613320Y1570570D01*
X4605270Y1551520D01*
X4602060Y1532470D01*
Y1509180D01*
X4605270Y1490130D01*
X4613320Y1473200D01*
X4622970Y1464730D01*
X4634230Y1460500D01*
X4647100Y1464730D01*
X4656750Y1473200D01*
X4663190Y1485900D01*
X4666400Y1502840D01*
X4663190Y1517650D01*
X4655140Y1532470D01*
X4645490Y1540940D01*
X4634230Y1543050D01*
X4621360Y1538820D01*
X4611710Y1528230D01*
X4602060Y1509180D01*
G01X4224440Y1587500D02*
Y1460500D01*
X4184230D01*
X4171360Y1466850D01*
X4163310Y1475320D01*
X4160100Y1492250D01*
X4163310Y1509180D01*
X4172970Y1519770D01*
X4184230Y1526120D01*
X4224440D01*
G01X4184230D02*
X4160100Y1587500D01*
G01X4062730D02*
X4051470Y1585380D01*
X4038600Y1579040D01*
X4030560Y1568450D01*
X4027340Y1553630D01*
X4030560Y1538820D01*
X4040210Y1526120D01*
X4054690Y1519770D01*
X4070770D01*
X4080430Y1515530D01*
X4088470Y1504950D01*
X4091690Y1490130D01*
X4086860Y1475320D01*
X4075600Y1464730D01*
X4062730Y1460500D01*
X4049860Y1464730D01*
X4038600Y1475320D01*
X4033770Y1490130D01*
X4036990Y1504950D01*
X4045030Y1515530D01*
X4054690Y1519770D01*
X4070770D01*
X4085250Y1526120D01*
X4094900Y1538820D01*
X4098120Y1553630D01*
X4094900Y1568450D01*
X4086860Y1579040D01*
X4073990Y1585380D01*
X4062730Y1587500D01*
G01X4030560Y1079500D02*
Y1206500D01*
X4070770D01*
X4083640Y1200150D01*
X4091690Y1191680D01*
X4094900Y1174750D01*
X4091690Y1157820D01*
X4082030Y1147230D01*
X4070770Y1140880D01*
X4030560D01*
G01X4070770D02*
X4094900Y1079500D01*
G01X4189050D02*
X4192270Y1107010D01*
X4197100Y1130300D01*
X4203530Y1151470D01*
X4211570Y1174750D01*
X4224440Y1206500D01*
X4160100D01*
G01X4030560Y1968500D02*
Y2095500D01*
X4070770D01*
X4083640Y2089150D01*
X4091690Y2080680D01*
X4094900Y2063750D01*
X4091690Y2046820D01*
X4082030Y2036230D01*
X4070770Y2029880D01*
X4030560D01*
G01X4070770D02*
X4094900Y1968500D01*
G01X4164920Y1983310D02*
X4176180Y1972730D01*
X4189050Y1968500D01*
X4201920Y1972730D01*
X4213180Y1985430D01*
X4221230Y2004480D01*
X4224440Y2023530D01*
Y2046820D01*
X4221230Y2065870D01*
X4213180Y2082800D01*
X4203530Y2091270D01*
X4192270Y2095500D01*
X4179400Y2091270D01*
X4169750Y2082800D01*
X4163310Y2070100D01*
X4160100Y2053160D01*
X4163310Y2038350D01*
X4171360Y2023530D01*
X4181010Y2015060D01*
X4192270Y2012950D01*
X4205140Y2017180D01*
X4214790Y2027770D01*
X4224440Y2046820D01*
G01X4860710Y2095500D02*
Y1968500D01*
X4820500D01*
X4807630Y1974850D01*
X4799580Y1983320D01*
X4796370Y2000250D01*
X4799580Y2017180D01*
X4809240Y2027770D01*
X4820500Y2034120D01*
X4860710D01*
G01X4820500D02*
X4796370Y2095500D01*
G01X4699000D02*
Y1968500D01*
X4718300Y1993900D01*
G01Y2095500D02*
X4679700D01*
G01X4569460Y1968500D02*
X4582330Y1972730D01*
X4591980Y1983320D01*
X4598420Y1996010D01*
X4603240Y2012950D01*
X4604850Y2032000D01*
X4603240Y2051050D01*
X4598420Y2067990D01*
X4591980Y2080690D01*
X4582330Y2091270D01*
X4569460Y2095500D01*
X4556590Y2091270D01*
X4546940Y2080690D01*
X4540500Y2067990D01*
X4535680Y2051050D01*
X4534070Y2032000D01*
X4535680Y2012950D01*
X4540500Y1996010D01*
X4546940Y1983320D01*
X4556590Y1972730D01*
X4569460Y1968500D01*
G01X4156880Y2423580D02*
X4166530Y2417230D01*
X4177790Y2413000D01*
X4190660D01*
X4205140Y2419350D01*
X4216400Y2429930D01*
X4224440Y2442630D01*
X4230880Y2463800D01*
X4232490Y2482850D01*
X4229270Y2501900D01*
X4224440Y2514600D01*
X4214790Y2527300D01*
X4203530Y2535770D01*
X4192270Y2540000D01*
X4181010D01*
X4169750Y2535770D01*
X4160100Y2529420D01*
X4152050Y2520950D01*
G01X4065950Y2540000D02*
X4062730Y2512490D01*
X4057900Y2489200D01*
X4051470Y2468030D01*
X4043430Y2444750D01*
X4030560Y2413000D01*
X4094900D01*
G01X4793150Y2423580D02*
X4802800Y2417230D01*
X4814060Y2413000D01*
X4826930D01*
X4841410Y2419350D01*
X4852670Y2429930D01*
X4860710Y2442630D01*
X4867150Y2463800D01*
X4868760Y2482850D01*
X4865540Y2501900D01*
X4860710Y2514600D01*
X4851060Y2527300D01*
X4839800Y2535770D01*
X4828540Y2540000D01*
X4817280D01*
X4806020Y2535770D01*
X4796370Y2529420D01*
X4788320Y2520950D01*
G01X4699000Y2540000D02*
Y2413000D01*
X4718300Y2438400D01*
G01Y2540000D02*
X4679700D01*
G01X4569460Y2413000D02*
X4582330Y2417230D01*
X4591980Y2427820D01*
X4598420Y2440510D01*
X4603240Y2457450D01*
X4604850Y2476500D01*
X4603240Y2495550D01*
X4598420Y2512490D01*
X4591980Y2525190D01*
X4582330Y2535770D01*
X4569460Y2540000D01*
X4556590Y2535770D01*
X4546940Y2525190D01*
X4540500Y2512490D01*
X4535680Y2495550D01*
X4534070Y2476500D01*
X4535680Y2457450D01*
X4540500Y2440510D01*
X4546940Y2427820D01*
X4556590Y2417230D01*
X4569460Y2413000D01*
G01X4860710Y3048000D02*
Y2921000D01*
X4820500D01*
X4807630Y2927350D01*
X4799580Y2935820D01*
X4796370Y2952750D01*
X4799580Y2969680D01*
X4809240Y2980270D01*
X4820500Y2986620D01*
X4860710D01*
G01X4820500D02*
X4796370Y3048000D01*
G01X4699000D02*
Y2921000D01*
X4718300Y2946400D01*
G01Y3048000D02*
X4679700D01*
G01X4600030Y2942170D02*
X4590370Y2929470D01*
X4579110Y2923120D01*
X4566240Y2921000D01*
X4550160Y2925230D01*
X4538890Y2935820D01*
X4535680Y2948510D01*
X4537290Y2961220D01*
X4543720Y2971800D01*
X4575890Y2992970D01*
X4590370Y3007780D01*
X4600030Y3028950D01*
X4603240Y3048000D01*
X4535680D01*
G01X3965790Y3556000D02*
Y3683000D01*
X4006000D01*
X4018870Y3676650D01*
X4026920Y3668180D01*
X4030130Y3651250D01*
X4026920Y3634320D01*
X4017260Y3623730D01*
X4006000Y3617380D01*
X3965790D01*
G01X4006000D02*
X4030130Y3556000D01*
G01X4127500D02*
Y3683000D01*
X4108200Y3657600D01*
G01Y3556000D02*
X4146800D01*
G01X4257040D02*
Y3683000D01*
X4237740Y3657600D01*
G01Y3556000D02*
X4276340D01*
G01X4156880Y4963580D02*
X4166530Y4957230D01*
X4177790Y4953000D01*
X4190660D01*
X4205140Y4959350D01*
X4216400Y4969930D01*
X4224440Y4982630D01*
X4230880Y5003800D01*
X4232490Y5022850D01*
X4229270Y5041900D01*
X4224440Y5054600D01*
X4214790Y5067300D01*
X4203530Y5075770D01*
X4192270Y5080000D01*
X4181010D01*
X4169750Y5075770D01*
X4160100Y5069420D01*
X4152050Y5060950D01*
G01X4062730Y5080000D02*
X4051470Y5077880D01*
X4038600Y5071540D01*
X4030560Y5060950D01*
X4027340Y5046130D01*
X4030560Y5031320D01*
X4040210Y5018620D01*
X4054690Y5012270D01*
X4070770D01*
X4080430Y5008030D01*
X4088470Y4997450D01*
X4091690Y4982630D01*
X4086860Y4967820D01*
X4075600Y4957230D01*
X4062730Y4953000D01*
X4049860Y4957230D01*
X4038600Y4967820D01*
X4033770Y4982630D01*
X4036990Y4997450D01*
X4045030Y5008030D01*
X4054690Y5012270D01*
X4070770D01*
X4085250Y5018620D01*
X4094900Y5031320D01*
X4098120Y5046130D01*
X4094900Y5060950D01*
X4086860Y5071540D01*
X4073990Y5077880D01*
X4062730Y5080000D01*
G01X4985850Y4624920D02*
X4976200Y4631270D01*
X4964940Y4635500D01*
X4952070D01*
X4937590Y4629150D01*
X4926330Y4618570D01*
X4918290Y4605870D01*
X4911850Y4584700D01*
X4910240Y4565650D01*
X4913460Y4546600D01*
X4918290Y4533900D01*
X4927940Y4521200D01*
X4939200Y4512730D01*
X4950460Y4508500D01*
X4961720D01*
X4972980Y4512730D01*
X4982630Y4519080D01*
X4990680Y4527550D01*
G01X5080000Y4508500D02*
Y4635500D01*
X5060700Y4610100D01*
G01Y4508500D02*
X5099300D01*
G01X5209540D02*
Y4635500D01*
X5190240Y4610100D01*
G01Y4508500D02*
X5228840D01*
G01X4918290Y4953000D02*
Y5080000D01*
X4958500D01*
X4971370Y5073650D01*
X4979420Y5065180D01*
X4982630Y5048250D01*
X4979420Y5031320D01*
X4969760Y5020730D01*
X4958500Y5014380D01*
X4918290D01*
G01X4958500D02*
X4982630Y4953000D01*
G01X5080000D02*
Y5080000D01*
X5060700Y5054600D01*
G01Y4953000D02*
X5099300D01*
G01X5174150Y4972050D02*
X5183800Y4961460D01*
X5195060Y4955120D01*
X5209540Y4953000D01*
X5224020Y4957230D01*
X5235280Y4965700D01*
X5243320Y4980510D01*
X5244930Y4997450D01*
X5241710Y5014380D01*
X5233670Y5024970D01*
X5222410Y5033430D01*
X5211150Y5035550D01*
X5199890Y5033430D01*
X5185410Y5024970D01*
X5190240Y5080000D01*
X5233670D01*
G01X5940210Y1651000D02*
Y1524000D01*
X5900000D01*
X5887130Y1530350D01*
X5879080Y1538820D01*
X5875870Y1555750D01*
X5879080Y1572680D01*
X5888740Y1583270D01*
X5900000Y1589620D01*
X5940210D01*
G01X5900000D02*
X5875870Y1651000D01*
G01X5778500D02*
Y1524000D01*
X5797800Y1549400D01*
G01Y1651000D02*
X5759200D01*
G01X5679530Y1598090D02*
X5668260Y1583270D01*
X5658610Y1574800D01*
X5645740Y1570570D01*
X5634480Y1574800D01*
X5626440Y1583270D01*
X5620000Y1595970D01*
X5618390Y1610780D01*
X5620000Y1623490D01*
X5626440Y1636190D01*
X5636090Y1646770D01*
X5647350Y1651000D01*
X5660220Y1646770D01*
X5671480Y1634070D01*
X5677920Y1615020D01*
X5679530Y1593850D01*
X5676310Y1566340D01*
X5671480Y1551510D01*
X5663440Y1536700D01*
X5652180Y1526120D01*
X5640920Y1524000D01*
X5629660Y1528230D01*
X5621610Y1538820D01*
G01X5872650Y1979080D02*
X5882300Y1972730D01*
X5893560Y1968500D01*
X5906430D01*
X5920910Y1974850D01*
X5932170Y1985430D01*
X5940210Y1998130D01*
X5946650Y2019300D01*
X5948260Y2038350D01*
X5945040Y2057400D01*
X5940210Y2070100D01*
X5930560Y2082800D01*
X5919300Y2091270D01*
X5908040Y2095500D01*
X5896780D01*
X5885520Y2091270D01*
X5875870Y2084920D01*
X5867820Y2076450D01*
G01X5778500Y2095500D02*
Y1968500D01*
X5797800Y1993900D01*
G01Y2095500D02*
X5759200D01*
G01X5679530Y1989670D02*
X5669870Y1976970D01*
X5658610Y1970620D01*
X5645740Y1968500D01*
X5629660Y1972730D01*
X5618390Y1983320D01*
X5615180Y1996010D01*
X5616790Y2008720D01*
X5623220Y2019300D01*
X5655390Y2040470D01*
X5669870Y2055280D01*
X5679530Y2076450D01*
X5682740Y2095500D01*
X5615180D01*
G01X5489790Y4508500D02*
Y4635500D01*
X5530000D01*
X5542870Y4629150D01*
X5550920Y4620680D01*
X5554130Y4603750D01*
X5550920Y4586820D01*
X5541260Y4576230D01*
X5530000Y4569880D01*
X5489790D01*
G01X5530000D02*
X5554130Y4508500D01*
G01X5651500D02*
Y4635500D01*
X5632200Y4610100D01*
G01Y4508500D02*
X5670800D01*
G01X5745650Y4533900D02*
X5755300Y4519080D01*
X5768170Y4510620D01*
X5782650Y4508500D01*
X5795520Y4510620D01*
X5808390Y4521200D01*
X5816430Y4533900D01*
X5818040Y4546600D01*
X5814820Y4561410D01*
X5803560Y4572000D01*
X5792300Y4576230D01*
X5777820D01*
G01X5792300D02*
X5801950Y4582580D01*
X5810000Y4593160D01*
X5813210Y4605870D01*
X5810000Y4618570D01*
X5801950Y4629150D01*
X5787470Y4635500D01*
X5773000Y4633380D01*
X5758520Y4624920D01*
G01X5489790Y4953000D02*
Y5080000D01*
X5530000D01*
X5542870Y5073650D01*
X5550920Y5065180D01*
X5554130Y5048250D01*
X5550920Y5031320D01*
X5541260Y5020730D01*
X5530000Y5014380D01*
X5489790D01*
G01X5530000D02*
X5554130Y4953000D01*
G01X5651500D02*
Y5080000D01*
X5632200Y5054600D01*
G01Y4953000D02*
X5670800D01*
G01X5800340D02*
Y5080000D01*
X5740820Y4988980D01*
X5821260D01*
G01X6402920Y2062650D02*
X6409270Y2072300D01*
X6413500Y2083560D01*
Y2096430D01*
X6407150Y2110910D01*
X6396570Y2122170D01*
X6383870Y2130210D01*
X6362700Y2136650D01*
X6343650Y2138260D01*
X6324600Y2135040D01*
X6311900Y2130210D01*
X6299200Y2120560D01*
X6290730Y2109300D01*
X6286500Y2098040D01*
Y2086780D01*
X6290730Y2075520D01*
X6297080Y2065870D01*
X6305550Y2057820D01*
G01X6286500Y1968500D02*
X6413500D01*
X6388100Y1987800D01*
G01X6286500D02*
Y1949200D01*
G01X6311900Y1874350D02*
X6297080Y1864700D01*
X6288620Y1851830D01*
X6286500Y1837350D01*
X6288620Y1824480D01*
X6299200Y1811610D01*
X6311900Y1803570D01*
X6324600Y1801960D01*
X6339410Y1805180D01*
X6350000Y1816440D01*
X6354230Y1827700D01*
Y1842180D01*
G01Y1827700D02*
X6360580Y1818050D01*
X6371160Y1810000D01*
X6383870Y1806790D01*
X6396570Y1810000D01*
X6407150Y1818050D01*
X6413500Y1832530D01*
X6411380Y1847000D01*
X6402920Y1861480D01*
G01X6804830Y2261450D02*
X6875610Y2354580D01*
G01X6840220Y2371510D02*
Y2244510D01*
G01X6875610Y2261450D02*
X6804830Y2354580D01*
G01X6791960Y2308010D02*
X6888480D01*
G01X6698070Y4787900D02*
X6706110Y4775200D01*
X6715760Y4766730D01*
X6727020Y4762500D01*
X6739890Y4766730D01*
X6749540Y4775200D01*
X6759200Y4787900D01*
X6762410Y4804830D01*
Y4889500D01*
G01X6824390Y4787900D02*
X6834040Y4773080D01*
X6846910Y4764620D01*
X6861390Y4762500D01*
X6874260Y4764620D01*
X6887130Y4775200D01*
X6895170Y4787900D01*
X6896780Y4800600D01*
X6893560Y4815410D01*
X6882300Y4826000D01*
X6871040Y4830230D01*
X6856560D01*
G01X6871040D02*
X6880690Y4836580D01*
X6888740Y4847160D01*
X6891950Y4859870D01*
X6888740Y4872570D01*
X6880690Y4883150D01*
X6866210Y4889500D01*
X6851740Y4887380D01*
X6837260Y4878920D01*
G01X7017850Y1322920D02*
X7008200Y1329270D01*
X6996940Y1333500D01*
X6984070D01*
X6969590Y1327150D01*
X6958330Y1316570D01*
X6950290Y1303870D01*
X6943850Y1282700D01*
X6942240Y1263650D01*
X6945460Y1244600D01*
X6950290Y1231900D01*
X6959940Y1219200D01*
X6971200Y1210730D01*
X6982460Y1206500D01*
X6993720D01*
X7004980Y1210730D01*
X7014630Y1217080D01*
X7022680Y1225550D01*
G01X7112000Y1206500D02*
Y1333500D01*
X7092700Y1308100D01*
G01Y1206500D02*
X7131300D01*
G01X7260840D02*
Y1333500D01*
X7201320Y1242480D01*
X7281760D01*
G01X7011840Y2095500D02*
Y2004480D01*
X7018270Y1985430D01*
X7031140Y1972730D01*
X7047230Y1968500D01*
X7063320Y1972730D01*
X7076190Y1985430D01*
X7082620Y2004480D01*
Y2095500D01*
G01X7196070Y1968500D02*
Y2095500D01*
X7136550Y2004480D01*
X7216990D01*
G01X8138330Y3785450D02*
X8209110Y3878580D01*
G01X8173720Y3895510D02*
Y3768510D01*
G01X8209110Y3785450D02*
X8138330Y3878580D01*
G01X8125460Y3832010D02*
X8221980D01*
G01X8345340Y3619500D02*
Y3528480D01*
X8351770Y3509430D01*
X8364640Y3496730D01*
X8380730Y3492500D01*
X8396820Y3496730D01*
X8409690Y3509430D01*
X8416120Y3528480D01*
Y3619500D01*
G01X8510270Y3492500D02*
Y3619500D01*
X8490970Y3594100D01*
G01Y3492500D02*
X8529570D01*
G01X8349070Y4724400D02*
X8357110Y4711700D01*
X8366760Y4703230D01*
X8378020Y4699000D01*
X8390890Y4703230D01*
X8400540Y4711700D01*
X8410200Y4724400D01*
X8413410Y4741330D01*
Y4826000D01*
G01X8510780Y4699000D02*
Y4826000D01*
X8491480Y4800600D01*
G01Y4699000D02*
X8530080D01*
G01X8928100Y1935570D02*
X8940800Y1943610D01*
X8949270Y1953260D01*
X8953500Y1964520D01*
X8949270Y1977390D01*
X8940800Y1987040D01*
X8928100Y1996700D01*
X8911170Y1999910D01*
X8826500D01*
G01X8953500Y2116580D02*
X8826500D01*
X8917520Y2057060D01*
Y2137500D01*
G01X9323920Y4029880D02*
X9330270Y4039530D01*
X9334500Y4050790D01*
Y4063660D01*
X9328150Y4078140D01*
X9317570Y4089400D01*
X9304870Y4097440D01*
X9283700Y4103880D01*
X9264650Y4105490D01*
X9245600Y4102270D01*
X9232900Y4097440D01*
X9220200Y4087790D01*
X9211730Y4076530D01*
X9207500Y4065270D01*
Y4054010D01*
X9211730Y4042750D01*
X9218080Y4033100D01*
X9226550Y4025050D01*
G01X9207500Y3935730D02*
X9334500D01*
X9309100Y3955030D01*
G01X9207500D02*
Y3916430D01*
M02*
