G04 ================== begin FILE IDENTIFICATION RECORD ==================*
G04 Layout Name:  C:/OrCAD/week 11/allegro/WEEK 11 ECG PROJECT new type 1.brd*
G04 Film Name:    SM_TOP*
G04 File Format:  Gerber RS274X*
G04 File Origin:  Cadence Allegro 16.6-P004*
G04 Origin Date:  Sun May 23 19:35:43 2021*
G04 *
G04 Layer:  VIA CLASS/SOLDERMASK_TOP*
G04 Layer:  PIN/SOLDERMASK_TOP*
G04 Layer:  DRC ERROR CLASS/SOLDERMASK_TOP*
G04 *
G04 Offset:    (0.0000 0.0000)*
G04 Mirror:    No*
G04 Mode:      Positive*
G04 Rotation:  0*
G04 FullContactRelief:  No*
G04 UndefLineWidth:     0.0000*
G04 ================== end FILE IDENTIFICATION RECORD ====================*
%FSLAX25Y25*MOMM*%
%IR0*IPPOS*OFA0.00000B0.00000*MIA0B0*SFA1.00000B1.00000*%
%ADD13R,2.3063X.5608*%
%ADD17R,1.3462X.8636*%
%ADD10R,.8636X1.3462*%
%ADD16R,1.9812X.5588*%
%ADD11C,1.1176*%
%ADD15R,2.0828X1.1938*%
%ADD12C,1.4986*%
%ADD14R,1.1938X2.0828*%
%LPD*%
G75*
G54D10*
X737870Y1905000D03*
Y2603500D03*
X1294130Y1270000D03*
X1118870D03*
X913130Y1905000D03*
X1103630Y2222500D03*
X928370D03*
X1484630Y1905000D03*
X1309370D03*
X913130Y2603500D03*
X1484630D03*
X1309370D03*
X928370Y3302000D03*
X1103630D03*
X1499870Y3873500D03*
X2373630Y2794000D03*
X2198370D03*
X1675130Y3873500D03*
X2706370Y2540000D03*
X2881630D03*
X3389630Y2794000D03*
X3214370D03*
X4611370Y1524000D03*
X4039870D03*
X4215130D03*
Y1143000D03*
X4039870D03*
X4215130Y2032000D03*
X4039870D03*
X4611370D03*
X4039870Y2476500D03*
X4215130D03*
X4611370D03*
Y2984500D03*
X4215130Y3619500D03*
X4039870D03*
Y5016500D03*
X4215130D03*
X4786630Y1524000D03*
Y2032000D03*
Y2476500D03*
Y2984500D03*
X5167630Y4572000D03*
X4992370D03*
X5167630Y5016500D03*
X4992370D03*
X5690870Y1587500D03*
X5866130D03*
X5690870Y2032000D03*
X5866130D03*
X5739130Y4572000D03*
X5563870D03*
X5739130Y5016500D03*
X5563870D03*
G54D11*
X762000Y2857500D03*
X1143000Y1587500D03*
X1460500Y952500D03*
Y2095500D03*
X1143000Y1841500D03*
X1587500Y1651000D03*
X1524000Y2349500D03*
X1016000Y2413000D03*
X1524000Y3556000D03*
X1778000Y952500D03*
X1968500Y1968500D03*
X1714500Y1651000D03*
X1968500Y2222500D03*
Y2349500D03*
X2032000Y3111500D03*
Y2857500D03*
X1778000Y3683000D03*
X2095500Y3302000D03*
X1968500Y4254500D03*
Y3937000D03*
X2286000Y4699000D03*
Y4889500D03*
X2603500Y2794000D03*
X3048000Y2857500D03*
X3683000Y1587500D03*
X3365500Y1397000D03*
X3873500D03*
X3492500Y1460500D03*
X3556000Y1905000D03*
X3810000D03*
X3619500Y1778000D03*
Y2032000D03*
X3492500Y1651000D03*
X3810000Y2603500D03*
X3492500D03*
X3746500Y2730500D03*
X3619500Y3048000D03*
X3556000Y3873500D03*
Y4000500D03*
X3810000Y4254500D03*
X3492500Y4508500D03*
X3810000Y5207000D03*
X3492500Y5080000D03*
X4381500Y1016000D03*
X3937000Y2984500D03*
X4127500D03*
X4508500Y3873500D03*
X4318000Y4381500D03*
X4127500D03*
X4508500Y4064000D03*
Y5016500D03*
X4699000Y2730500D03*
X5207000Y3302000D03*
Y3873500D03*
Y4127500D03*
X5080000Y4000500D03*
X6032500Y3238500D03*
X6604000Y1968500D03*
Y1714500D03*
X7556500Y1587500D03*
X7683500D03*
X7810500Y1460500D03*
Y2222500D03*
X7937500Y2032000D03*
Y1841500D03*
Y3492500D03*
Y3937000D03*
X9080500Y3619500D03*
Y3302000D03*
X8699500Y4127500D03*
X9398000Y3492500D03*
G54D12*
X1456510Y4762500D03*
X1206500D03*
X6917510Y4826000D03*
X6667500D03*
X8318500Y4762500D03*
X8890000Y2155010D03*
Y1905000D03*
X8568510Y4762500D03*
G54D13*
X2214240Y1270000D03*
Y1397000D03*
Y1524000D03*
Y1651000D03*
Y1778000D03*
Y1905000D03*
Y2032000D03*
Y2159000D03*
X2277740Y3619500D03*
Y3746500D03*
Y3873500D03*
Y4000500D03*
Y4127500D03*
Y4254500D03*
Y4381500D03*
Y4508500D03*
X3119760Y1524000D03*
Y1397000D03*
Y1270000D03*
Y2159000D03*
Y2032000D03*
Y1905000D03*
Y1778000D03*
Y1651000D03*
X3183260Y3873500D03*
Y3746500D03*
Y3619500D03*
Y4508500D03*
Y4381500D03*
Y4254500D03*
Y4127500D03*
Y4000500D03*
G54D14*
X6950710Y1270000D03*
X7273290D03*
G54D15*
X6350000Y1807210D03*
Y2129790D03*
G54D16*
X6865620Y1841500D03*
Y1968500D03*
Y2095500D03*
Y2222500D03*
X7358380D03*
Y2095500D03*
Y1968500D03*
Y1841500D03*
X8199120Y3365500D03*
Y3492500D03*
Y3619500D03*
Y3746500D03*
X8691880D03*
Y3619500D03*
Y3492500D03*
Y3365500D03*
G54D17*
X9271000Y3912870D03*
Y4088130D03*
M02*
