G04 ================== begin FILE IDENTIFICATION RECORD ==================*
G04 Layout Name:  C:/OrCAD/week 11/allegro/WEEK 11 ECG PROJECT new type 1.brd*
G04 Film Name:    TOP*
G04 File Format:  Gerber RS274X*
G04 File Origin:  Cadence Allegro 16.6-P004*
G04 Origin Date:  Sun May 23 19:35:43 2021*
G04 *
G04 Layer:  ETCH/TOP*
G04 Layer:  PIN/TOP*
G04 Layer:  VIA CLASS/TOP*
G04 *
G04 Offset:    (0.0000 0.0000)*
G04 Mirror:    No*
G04 Mode:      Positive*
G04 Rotation:  0*
G04 FullContactRelief:  No*
G04 UndefLineWidth:     0.0000*
G04 ================== end FILE IDENTIFICATION RECORD ====================*
%FSLAX25Y25*MOMM*%
%IR0*IPPOS*OFA0.00000B0.00000*MIA0B0*SFA1.00000B1.00000*%
%ADD13R,2.3063X.5608*%
%ADD11C,.6096*%
%ADD17R,1.3462X.8636*%
%ADD10R,.8636X1.3462*%
%ADD16R,1.9812X.5588*%
%ADD15R,2.0828X1.1938*%
%ADD12C,1.4986*%
%ADD14R,1.1938X2.0828*%
%ADD18C,.3*%
%ADD19C,.127*%
%ADD22R,2.2356X.8132*%
%ADD21R,2.5608X.8152*%
%ADD20C,1.753*%
G75*
%LPD*%
G75*
G36*
G01X500010Y500010D02*
Y5499990D01*
X9499990D01*
Y500010D01*
X500010D01*
G37*
%LPC*%
G75*
G36*
G01X3311300Y4536220D02*
X3459370D01*
G02Y4480780I33130J-27720D01*
G01X3311300D01*
Y4467740D01*
X3055220D01*
Y4549260D01*
X3311300D01*
Y4536220D01*
G37*
G36*
G01X1178780Y4480780D02*
Y4679350D01*
G02X1234220I27720J83150D01*
G01Y4536220D01*
X2149700D01*
Y4549260D01*
X2250020D01*
Y4675090D01*
G02X2313720Y4665870I35978J23911D01*
G01Y4613100D01*
X2305460D01*
Y4549260D01*
X2405780D01*
Y4467740D01*
X2305460D01*
Y4422260D01*
X2405780D01*
Y4340740D01*
X2149700D01*
Y4422260D01*
X2250020D01*
Y4467740D01*
X2149700D01*
Y4480780D01*
X1178780D01*
G37*
G36*
G01X3311300Y4282220D02*
X3776870D01*
G02Y4226780I33130J-27720D01*
G01X3311300D01*
Y4213740D01*
X3055220D01*
Y4295260D01*
X3311300D01*
Y4282220D01*
G37*
G36*
G01X2149700Y4226780D02*
X2001630D01*
G02Y4282220I-33130J27720D01*
G01X2149700D01*
Y4295260D01*
X2405780D01*
Y4213740D01*
X2149700D01*
Y4226780D01*
G37*
G36*
G01X8596230Y3909280D02*
X7970630D01*
G02Y3964720I-33130J27720D01*
G01X8540790D01*
Y4679350D01*
G02X8596230I27720J83150D01*
G01Y3909280D01*
G37*
G36*
G01X4536220Y4030870D02*
Y3906630D01*
G02X4480780I-27720J-33130D01*
G01Y4030870D01*
G02X4536220I27720J33130D01*
G37*
G36*
G01X8803660Y3787160D02*
Y3705840D01*
X8580100D01*
Y3787160D01*
X8664160D01*
Y4102650D01*
G02X8719600Y4089260I35339J24850D01*
G01Y3787160D01*
X8803660D01*
G37*
G36*
G01Y3647220D02*
X9047370D01*
G02Y3591780I33130J-27720D01*
G01X8803660D01*
Y3578840D01*
X8580100D01*
Y3660160D01*
X8803660D01*
Y3647220D01*
G37*
G36*
G01X1527590Y3649790D02*
X1551720Y3625660D01*
Y3589130D01*
G02X1496280I-27720J-33130D01*
G01Y3602700D01*
X1472150Y3626830D01*
Y3793470D01*
X1443970D01*
Y3953530D01*
X1555770D01*
Y3940830D01*
X1619230D01*
Y3953530D01*
X1731030D01*
Y3793470D01*
X1702850D01*
Y3710720D01*
X1744870D01*
G02Y3655280I33130J-27720D01*
G01X1647410D01*
Y3793470D01*
X1619230D01*
Y3806170D01*
X1555770D01*
Y3793470D01*
X1527590D01*
Y3649790D01*
G37*
G36*
G01X9298720Y3520220D02*
X9364870D01*
G02Y3464780I33130J-27720D01*
G01X8803660D01*
Y3451840D01*
X8580100D01*
Y3533160D01*
X8803660D01*
Y3520220D01*
X9243280D01*
Y3856970D01*
X9190970D01*
Y3885150D01*
X9148270D01*
Y4115850D01*
X9190970D01*
Y4144030D01*
X9351030D01*
Y4032230D01*
X9338330D01*
Y3968770D01*
X9351030D01*
Y3856970D01*
X9298720D01*
Y3520220D01*
G37*
G36*
G01X8087340Y3464780D02*
X7970630D01*
G02Y3520220I-33130J27720D01*
G01X8087340D01*
Y3533160D01*
X8310900D01*
Y3451840D01*
X8087340D01*
Y3464780D01*
G37*
G36*
G01X5234720Y3840370D02*
Y3335130D01*
G02X5179280I-27720J-33130D01*
G01Y3840370D01*
G02X5234720I27720J33130D01*
G37*
G36*
G01X6060220Y3718780D02*
Y3271630D01*
G02X6004780I-27720J-33130D01*
G01Y3774220D01*
X7782780D01*
Y4790220D01*
X8235350D01*
G02Y4734780I83150J-27720D01*
G01X7838220D01*
Y3829860D01*
X8353600D01*
Y3663140D01*
X8310900D01*
Y3578840D01*
X8087340D01*
Y3591780D01*
X7782780D01*
Y3718780D01*
X6060220D01*
G37*
G36*
G01X3270270Y2726670D02*
Y2713970D01*
X3158470D01*
Y2766280D01*
X3020280D01*
Y2824370D01*
G02X3085890Y2836760I27718J33132D01*
G03X3094810Y2821720I8914J-4879D01*
G01X3158470D01*
Y2874030D01*
X3270270D01*
Y2861330D01*
X3333730D01*
Y2874030D01*
X3445530D01*
Y2713970D01*
X3333730D01*
Y2726670D01*
X3270270D01*
G37*
G36*
G01X2254270D02*
Y2713970D01*
X2142470D01*
Y2766280D01*
X2004280D01*
Y2824370D01*
G02X2069890Y2836760I27718J33132D01*
G03X2078810Y2821720I8914J-4879D01*
G01X2142470D01*
Y2874030D01*
X2254270D01*
Y2861330D01*
X2317730D01*
Y2874030D01*
X2429530D01*
Y2821720D01*
X2570370D01*
G02Y2766280I33130J-27720D01*
G01X2429530D01*
Y2713970D01*
X2317730D01*
Y2726670D01*
X2254270D01*
G37*
G36*
G01X3776870Y2575780D02*
X3525630D01*
G02Y2631220I-33130J27720D01*
G01X3776870D01*
G02Y2575780I33130J-27720D01*
G37*
G36*
G01X6466860Y1779490D02*
Y1734800D01*
X6233140D01*
Y1879620D01*
X6245840D01*
Y2057380D01*
X6233140D01*
Y2202200D01*
X6466860D01*
Y2157510D01*
X6509560D01*
Y2123220D01*
X6753840D01*
Y2136160D01*
X6977400D01*
Y2054840D01*
X6753840D01*
Y2067780D01*
X6466860D01*
Y2057380D01*
X6454160D01*
Y1879620D01*
X6466860D01*
Y1834930D01*
X6711140D01*
Y1869220D01*
X6753840D01*
Y1882160D01*
X6977400D01*
Y1800840D01*
X6766580D01*
Y1779490D01*
X6466860D01*
G37*
G36*
G01X3247800Y1678720D02*
X3459370D01*
G02Y1623280I33130J-27720D01*
G01X3247800D01*
Y1610240D01*
X2991720D01*
Y1691760D01*
X3247800D01*
Y1678720D01*
G37*
G36*
G01Y1424720D02*
X3332370D01*
G02Y1369280I33130J-27720D01*
G01X3247800D01*
Y1356240D01*
X2991720D01*
Y1437760D01*
X3247800D01*
Y1424720D01*
G37*
G36*
G01X3983970Y4988780D02*
X2313720D01*
Y4922630D01*
G02X2258280I-27720J-33130D01*
G01Y5044220D01*
X3445690D01*
G03X3454610Y5059260I6J10161D01*
G02X3464780Y5113130I37892J20741D01*
G01Y5372320D01*
X5766850D01*
Y5096530D01*
X5795030D01*
Y5044220D01*
X6695220D01*
Y4909150D01*
G02X6750650Y4853720I-27720J-83150D01*
G01X6834360D01*
G02Y4798280I83150J-27720D01*
G01X6750650D01*
G02X6639780Y4909150I-83150J27720D01*
G01Y4988780D01*
X5795030D01*
Y4936470D01*
X5683230D01*
Y4949170D01*
X5619770D01*
Y4936470D01*
X5507970D01*
Y4988780D01*
X5223530D01*
Y4936470D01*
X5111730D01*
Y4949170D01*
X5048270D01*
Y4936470D01*
X5020090D01*
Y4726720D01*
X5766850D01*
Y4652030D01*
X5795030D01*
Y4491970D01*
X5683230D01*
Y4504670D01*
X5619770D01*
Y4491970D01*
X5591590D01*
Y4345720D01*
X5893850D01*
Y2112030D01*
X5922030D01*
Y1951970D01*
X5810230D01*
Y1964670D01*
X5746770D01*
Y1951970D01*
X5718590D01*
Y1667530D01*
X5746770D01*
Y1654830D01*
X5810230D01*
Y1667530D01*
X5922030D01*
Y1507470D01*
X5810230D01*
Y1520170D01*
X5746770D01*
Y1507470D01*
X5634970D01*
Y1667530D01*
X5663150D01*
Y1951970D01*
X5634970D01*
Y2112030D01*
X5663150D01*
Y3972780D01*
X5113130D01*
G02Y4028220I-33130J27720D01*
G01X5718590D01*
Y2112030D01*
X5746770D01*
Y2099330D01*
X5810230D01*
Y2112030D01*
X5838410D01*
Y4290280D01*
X5536150D01*
Y4491970D01*
X5507970D01*
Y4544280D01*
X5223530D01*
Y4504710D01*
X5234720D01*
Y4160630D01*
G02X5179280I-27720J-33130D01*
G01Y4449270D01*
X4964650D01*
Y4491970D01*
X4936470D01*
Y4652030D01*
X5048270D01*
Y4639330D01*
X5111730D01*
Y4652030D01*
X5223530D01*
Y4599720D01*
X5507970D01*
Y4652030D01*
X5619770D01*
Y4639330D01*
X5683230D01*
Y4652030D01*
X5711410D01*
Y4671280D01*
X4964650D01*
Y4936470D01*
X4936470D01*
Y4988780D01*
X4541630D01*
G02Y5044220I-33130J27720D01*
G01X4936470D01*
Y5096530D01*
X5048270D01*
Y5083830D01*
X5111730D01*
Y5096530D01*
X5139910D01*
Y5179280D01*
X3843130D01*
G02Y5234720I-33130J27720D01*
G01X5195350D01*
Y5096530D01*
X5223530D01*
Y5044220D01*
X5507970D01*
Y5096530D01*
X5619770D01*
Y5083830D01*
X5683230D01*
Y5096530D01*
X5711410D01*
Y5316880D01*
X3520220D01*
Y5113130D01*
G02X3530390Y5059260I-27722J-33129D01*
G03X3539310Y5044220I8914J-4879D01*
G01X3983970D01*
Y5096530D01*
X4095770D01*
Y5083830D01*
X4159230D01*
Y5096530D01*
X4271030D01*
Y4936470D01*
X4242850D01*
Y3699530D01*
X4271030D01*
Y3647220D01*
X4814350D01*
Y3064530D01*
X4842530D01*
Y2904470D01*
X4730730D01*
Y2917170D01*
X4667270D01*
Y2904470D01*
X4639090D01*
Y2556530D01*
X4667270D01*
Y2543830D01*
X4730730D01*
Y2556530D01*
X4842530D01*
Y2396470D01*
X4730730D01*
Y2409170D01*
X4667270D01*
Y2396470D01*
X4555470D01*
Y2556530D01*
X4583650D01*
Y2904470D01*
X4555470D01*
Y2956780D01*
X4160630D01*
G02Y3012220I-33130J27720D01*
G01X4555470D01*
Y3064530D01*
X4667270D01*
Y3051830D01*
X4730730D01*
Y3064530D01*
X4758910D01*
Y3591780D01*
X4271030D01*
Y3539470D01*
X4159230D01*
Y3552170D01*
X4095770D01*
Y3539470D01*
X4067590D01*
Y2556530D01*
X4095770D01*
Y2543830D01*
X4159230D01*
Y2556530D01*
X4271030D01*
Y2396470D01*
X4242850D01*
Y2112030D01*
X4271030D01*
Y2059720D01*
X4353780D01*
Y2250220D01*
X4814350D01*
Y2112030D01*
X4842530D01*
Y1951970D01*
X4730730D01*
Y1964670D01*
X4667270D01*
Y1951970D01*
X4639090D01*
Y1604030D01*
X4667270D01*
Y1591330D01*
X4730730D01*
Y1604030D01*
X4842530D01*
Y1443970D01*
X4730730D01*
Y1456670D01*
X4667270D01*
Y1443970D01*
X4555470D01*
Y1604030D01*
X4583650D01*
Y1951970D01*
X4555470D01*
Y2004280D01*
X4536220D01*
Y1877280D01*
X3843130D01*
G02Y1932720I-33130J27720D01*
G01X4480780D01*
Y2059720D01*
X4555470D01*
Y2112030D01*
X4667270D01*
Y2099330D01*
X4730730D01*
Y2112030D01*
X4758910D01*
Y2194780D01*
X4409220D01*
Y2004280D01*
X4271030D01*
Y1951970D01*
X4159230D01*
Y1964670D01*
X4095770D01*
Y1951970D01*
X3983970D01*
Y2004280D01*
X3710720D01*
Y1620630D01*
G02X3720890Y1566760I-27722J-33129D01*
G03X3729810Y1551720I8914J-4879D01*
G01X3983970D01*
Y1604030D01*
X4095770D01*
Y1591330D01*
X4159230D01*
Y1604030D01*
X4271030D01*
Y1443970D01*
X4159230D01*
Y1456670D01*
X4095770D01*
Y1443970D01*
X4067590D01*
Y1223030D01*
X4095770D01*
Y1210330D01*
X4159230D01*
Y1223030D01*
X4271030D01*
Y1170720D01*
X4409220D01*
Y1049130D01*
G02X4419390Y995260I-27722J-33129D01*
G03X4428310Y980220I8914J-4879D01*
G01X7592280D01*
Y1242280D01*
X7345700D01*
Y1153140D01*
X7200880D01*
Y1165840D01*
X7023120D01*
Y1153140D01*
X6878300D01*
Y1386860D01*
X7023120D01*
Y1374160D01*
X7200880D01*
Y1386860D01*
X7345700D01*
Y1297720D01*
X7592280D01*
Y1813780D01*
X7470160D01*
Y1800840D01*
X7246600D01*
Y1882160D01*
X7470160D01*
Y1869220D01*
X7647720D01*
Y1488220D01*
X7777370D01*
G02Y1432780I33130J-27720D01*
G01X7647720D01*
Y924780D01*
X3845780D01*
Y1363870D01*
G02X3901220I27720J33130D01*
G01Y980220D01*
X4334690D01*
G03X4343610Y995260I6J10161D01*
G02X4353780Y1049130I37892J20741D01*
G01Y1115280D01*
X4271030D01*
Y1062970D01*
X4159230D01*
Y1075670D01*
X4095770D01*
Y1062970D01*
X3983970D01*
Y1223030D01*
X4012150D01*
Y1443970D01*
X3983970D01*
Y1496280D01*
X3539310D01*
G03X3530390Y1481240I-6J-10161D01*
G02X3520220Y1427370I-37892J-20741D01*
G01Y924780D01*
X1811130D01*
G02Y980220I-33130J27720D01*
G01X1877280D01*
Y1551720D01*
X2086200D01*
Y1564760D01*
X2342280D01*
Y1483240D01*
X2241960D01*
Y1437760D01*
X2342280D01*
Y1356240D01*
X2086200D01*
Y1437760D01*
X2186520D01*
Y1483240D01*
X2086200D01*
Y1496280D01*
X1932720D01*
Y980220D01*
X3464780D01*
Y1427370D01*
G02X3454610Y1481240I27722J33129D01*
G03X3445690Y1496280I-8914J4879D01*
G01X3247800D01*
Y1483240D01*
X2991720D01*
Y1564760D01*
X3247800D01*
Y1551720D01*
X3636190D01*
G03X3645110Y1566760I6J10161D01*
G02X3655280Y1620630I37892J20741D01*
G01Y1731190D01*
G03X3640240Y1740110I-10161J6D01*
G02X3586370Y1750280I-20741J37892D01*
G01X3247800D01*
Y1737240D01*
X2991720D01*
Y1818760D01*
X3247800D01*
Y1805720D01*
X3586370D01*
G02X3591780Y1811130I33130J-27720D01*
G01Y1858190D01*
G03X3576740Y1867110I-10161J6D01*
G02X3522870Y1877280I-20741J37892D01*
G01X3247800D01*
Y1864240D01*
X2991720D01*
Y1945760D01*
X3247800D01*
Y1932720D01*
X3522870D01*
G02X3576740Y1942890I33129J-27722D01*
G03X3591780Y1951810I4879J8914D01*
G01Y1998870D01*
G02X3652630Y2059720I27720J33130D01*
G01X3983970D01*
Y2112030D01*
X4095770D01*
Y2099330D01*
X4159230D01*
Y2112030D01*
X4187410D01*
Y2396470D01*
X4159230D01*
Y2409170D01*
X4095770D01*
Y2396470D01*
X3983970D01*
Y2448780D01*
X3147480D01*
Y2199760D01*
X3247800D01*
Y2118240D01*
X3147480D01*
Y2072760D01*
X3247800D01*
Y1991240D01*
X2991720D01*
Y2072760D01*
X3092040D01*
Y2118240D01*
X2991720D01*
Y2199760D01*
X3092040D01*
Y2504220D01*
X3983970D01*
Y2556530D01*
X4012150D01*
Y3539470D01*
X3983970D01*
Y3699530D01*
X4095770D01*
Y3686830D01*
X4159230D01*
Y3699530D01*
X4187410D01*
Y4936470D01*
X4159230D01*
Y4949170D01*
X4095770D01*
Y4936470D01*
X3983970D01*
Y4988780D01*
G37*
G36*
G01X1456910Y1985030D02*
Y2052240D01*
X1452740Y2053000D01*
G02X1495310Y2121080I7759J42498D01*
G02X1512350Y2095500I-10680J-25580D01*
G01Y1985030D01*
X1540530D01*
Y1824970D01*
X1512350D01*
Y1686780D01*
X885410D01*
Y1824970D01*
X857230D01*
Y1837670D01*
X793770D01*
Y1824970D01*
X681970D01*
Y1985030D01*
X710150D01*
Y2523470D01*
X681970D01*
Y2683530D01*
X710150D01*
Y2857500D01*
G02X727190Y2883080I27720J0D01*
G02X769760Y2815000I34811J-25582D01*
G01X765590Y2814240D01*
Y2683530D01*
X793770D01*
Y2670830D01*
X857230D01*
Y2683530D01*
X969030D01*
Y2523470D01*
X956090D01*
Y2440720D01*
X982870D01*
G02Y2385280I33130J-27720D01*
G01X956090D01*
Y2302530D01*
X984270D01*
Y2289830D01*
X1047730D01*
Y2302530D01*
X1075910D01*
Y3221970D01*
X1047730D01*
Y3234670D01*
X984270D01*
Y3221970D01*
X872470D01*
Y3274280D01*
X599220D01*
Y980220D01*
X1427370D01*
G02Y924780I33130J-27720D01*
G01X543780D01*
Y3329720D01*
X872470D01*
Y3382030D01*
X984270D01*
Y3369330D01*
X1047730D01*
Y3382030D01*
X1159530D01*
Y3221970D01*
X1131350D01*
Y2302530D01*
X1159530D01*
Y2142470D01*
X1131350D01*
Y1927400D01*
X1170720D01*
Y1874630D01*
G02X1103050Y1857940I-27722J-33131D01*
G03X1093650Y1871960I-9398J3860D01*
G01X1075910D01*
Y2142470D01*
X1047730D01*
Y2155170D01*
X984270D01*
Y2142470D01*
X872470D01*
Y2302530D01*
X900650D01*
Y2480770D01*
X885410D01*
Y2523470D01*
X857230D01*
Y2536170D01*
X793770D01*
Y2523470D01*
X765590D01*
Y1985030D01*
X793770D01*
Y1972330D01*
X857230D01*
Y1985030D01*
X969030D01*
Y1824970D01*
X940850D01*
Y1742220D01*
X1456910D01*
Y1824970D01*
X1428730D01*
Y1837670D01*
X1365270D01*
Y1824970D01*
X1253470D01*
Y1985030D01*
X1365270D01*
Y1972330D01*
X1428730D01*
Y1985030D01*
X1456910D01*
G37*
G36*
G01X7965220Y2065130D02*
G02X7909780I-27720J-33130D01*
G01Y2131280D01*
X7481520D01*
X7478830Y2133970D01*
G03X7470160Y2130370I-3590J-3595D01*
G01Y2054840D01*
X7246600D01*
Y2136160D01*
X7452110D01*
G03X7459290Y2153500I-3J10158D01*
G01X7430960Y2181840D01*
X7246600D01*
Y2263160D01*
X7470160D01*
Y2221040D01*
X7504480Y2186720D01*
X7763690D01*
G03X7772610Y2201760I6J10161D01*
G02X7782780Y2255630I37892J20741D01*
G01Y3393220D01*
X8087340D01*
Y3406160D01*
X8310900D01*
Y3324840D01*
X8087340D01*
Y3337780D01*
X7838220D01*
Y2255630D01*
G02X7848390Y2201760I-27722J-33129D01*
G03X7857310Y2186720I8914J-4879D01*
G01X8808290D01*
G02X8973150Y2182730I81711J-31712D01*
G01X9052780D01*
Y3268870D01*
G02X9108220I27720J33130D01*
G01Y2127290D01*
X8973150D01*
G02X8806690Y2127780I-83149J27722D01*
G01X8805540Y2131280D01*
X7965220D01*
Y2065130D01*
G37*
G36*
G01Y734280D02*
X1623280D01*
Y1242280D01*
X1350030D01*
Y1189970D01*
X1238230D01*
Y1202670D01*
X1174770D01*
Y1189970D01*
X1062970D01*
Y1350030D01*
X1091150D01*
Y1587500D01*
G02X1108190Y1613080I27720J0D01*
G02X1150760Y1545000I34811J-25582D01*
G01X1146590Y1544240D01*
Y1350030D01*
X1174770D01*
Y1337330D01*
X1238230D01*
Y1350030D01*
X1350030D01*
Y1297720D01*
X1559780D01*
Y1617870D01*
G02Y1684130I27720J33130D01*
G01Y2575780D01*
X1540530D01*
Y2523470D01*
X1428730D01*
Y2536170D01*
X1365270D01*
Y2523470D01*
X1253470D01*
Y2683530D01*
X1365270D01*
Y2670830D01*
X1428730D01*
Y2683530D01*
X1540530D01*
Y2631220D01*
X1615220D01*
Y1805720D01*
X1877280D01*
Y4155220D01*
X2149700D01*
Y4168260D01*
X2405780D01*
Y4086740D01*
X2149700D01*
Y4099780D01*
X1932720D01*
Y3983810D01*
G03X1947760Y3974890I10161J-6D01*
G02X1989240I20740J-37890D01*
G03X2004280Y3983810I4879J8914D01*
G01Y4028220D01*
X2149700D01*
Y4041260D01*
X2405780D01*
Y3959740D01*
X2149700D01*
Y3972780D01*
X2059720D01*
Y3901220D01*
X2149700D01*
Y3914260D01*
X2405780D01*
Y3832740D01*
X2305460D01*
Y3787260D01*
X2405780D01*
Y3705740D01*
X2149700D01*
Y3787260D01*
X2250020D01*
Y3832740D01*
X2149700D01*
Y3845780D01*
X2123220D01*
Y3335130D01*
G02X2074760Y3264110I-27731J-33121D01*
G03X2059720Y3255190I-4879J-8914D01*
G01Y3144630D01*
G02X2011260Y3073610I-27731J-33121D01*
G03X1996220Y3064690I-4879J-8914D01*
G01Y3012220D01*
X3572690D01*
G03X3581610Y3027260I6J10161D01*
G02X3591780Y3081130I37892J20741D01*
G01Y3826690D01*
G03X3576740Y3835610I-10161J6D01*
G02X3522870Y3845780I-20741J37892D01*
G01X3311300D01*
Y3832740D01*
X3210980D01*
Y3787260D01*
X3311300D01*
Y3705740D01*
X3055220D01*
Y3787260D01*
X3155540D01*
Y3832740D01*
X3055220D01*
Y3914260D01*
X3311300D01*
Y3901220D01*
X3522870D01*
G02X3576740Y3911390I33129J-27722D01*
G03X3591780Y3920310I4879J8914D01*
G01Y3953690D01*
G03X3576740Y3962610I-10161J6D01*
G02X3522870Y3972780I-20741J37892D01*
G01X3311300D01*
Y3959740D01*
X3055220D01*
Y4041260D01*
X3311300D01*
Y4028220D01*
X3522870D01*
G02X3576740Y4038390I33129J-27722D01*
G03X3591780Y4047310I4879J8914D01*
G01Y4099780D01*
X3311300D01*
Y4086740D01*
X3055220D01*
Y4168260D01*
X3311300D01*
Y4155220D01*
X3647220D01*
Y3081130D01*
G02X3657390Y3027260I-27722J-33129D01*
G03X3666310Y3012220I8914J-4879D01*
G01X3903870D01*
G02Y2956780I33130J-27720D01*
G01X1932720D01*
Y2567720D01*
X2650470D01*
Y2620030D01*
X2762270D01*
Y2607330D01*
X2825730D01*
Y2620030D01*
X2937530D01*
Y2459970D01*
X2825730D01*
Y2472670D01*
X2762270D01*
Y2459970D01*
X2650470D01*
Y2512280D01*
X1932720D01*
Y2269310D01*
G03X1947760Y2260390I10161J-6D01*
G02X2001630Y2250220I20741J-37892D01*
G01X2074940D01*
X2125400Y2199760D01*
X2342280D01*
Y2118240D01*
X2241960D01*
Y2072760D01*
X2342280D01*
Y1991240D01*
X2086200D01*
Y2072760D01*
X2186520D01*
Y2118240D01*
X2086200D01*
Y2160550D01*
X2051980Y2194780D01*
X2001630D01*
G02X1947760Y2184610I-33129J27722D01*
G03X1932720Y2175690I-4879J-8914D01*
G01Y2015310D01*
G03X1947760Y2006390I10161J-6D01*
G02X2011670Y1966840I20743J-37893D01*
G01X2011580Y1964620D01*
X2043480Y1932720D01*
X2086200D01*
Y1945760D01*
X2342280D01*
Y1864240D01*
X2086200D01*
Y1877280D01*
X2020520D01*
X1972380Y1925420D01*
X1970160Y1925330D01*
G02X1947760Y1930610I-1647J43168D01*
G03X1932720Y1921690I-4879J-8914D01*
G01Y1805720D01*
X2086200D01*
Y1818760D01*
X2342280D01*
Y1737240D01*
X2086200D01*
Y1750280D01*
X1678720D01*
Y1697810D01*
G03X1693760Y1688890I10161J-6D01*
G02X1747630Y1678720I20741J-37892D01*
G01X2086200D01*
Y1691760D01*
X2342280D01*
Y1610240D01*
X2086200D01*
Y1623280D01*
X1747630D01*
G02X1693760Y1613110I-33129J27722D01*
G03X1678720Y1604190I-4879J-8914D01*
G01Y789720D01*
X7909780D01*
Y1808370D01*
G02X7965220I27720J33130D01*
G01Y734280D01*
G37*
G54D22*
X6865620Y1968500D03*
Y2222500D03*
X7358380Y1968500D03*
X8691880Y3365500D03*
G54D21*
X2214240Y1270000D03*
X2277740Y3619500D03*
X3119760Y1270000D03*
X3183260Y3619500D03*
Y4381500D03*
G54D20*
X1456510Y4762500D03*
X8890000Y1905000D03*
%LPD*%
G75*
G54D10*
X737870Y1905000D03*
Y2603500D03*
X1294130Y1270000D03*
X1118870D03*
X913130Y1905000D03*
X1103630Y2222500D03*
X928370D03*
X1484630Y1905000D03*
X1309370D03*
X913130Y2603500D03*
X1484630D03*
X1309370D03*
X928370Y3302000D03*
X1103630D03*
X1499870Y3873500D03*
X2373630Y2794000D03*
X2198370D03*
X1675130Y3873500D03*
X2706370Y2540000D03*
X2881630D03*
X3389630Y2794000D03*
X3214370D03*
X4611370Y1524000D03*
X4039870D03*
X4215130D03*
Y1143000D03*
X4039870D03*
X4215130Y2032000D03*
X4039870D03*
X4611370D03*
X4039870Y2476500D03*
X4215130D03*
X4611370D03*
Y2984500D03*
X4215130Y3619500D03*
X4039870D03*
Y5016500D03*
X4215130D03*
X4786630Y1524000D03*
Y2032000D03*
Y2476500D03*
Y2984500D03*
X5167630Y4572000D03*
X4992370D03*
X5167630Y5016500D03*
X4992370D03*
X5690870Y1587500D03*
X5866130D03*
X5690870Y2032000D03*
X5866130D03*
X5739130Y4572000D03*
X5563870D03*
X5739130Y5016500D03*
X5563870D03*
G54D11*
X762000Y2857500D03*
X1143000Y1587500D03*
X1460500Y952500D03*
Y2095500D03*
X1143000Y1841500D03*
X1587500Y1651000D03*
X1524000Y2349500D03*
X1016000Y2413000D03*
X1524000Y3556000D03*
X1778000Y952500D03*
X1968500Y1968500D03*
X1714500Y1651000D03*
X1968500Y2222500D03*
Y2349500D03*
X2032000Y3111500D03*
Y2857500D03*
X1778000Y3683000D03*
X2095500Y3302000D03*
X1968500Y4254500D03*
Y3937000D03*
X2286000Y4699000D03*
Y4889500D03*
X2603500Y2794000D03*
X3048000Y2857500D03*
X3683000Y1587500D03*
X3365500Y1397000D03*
X3873500D03*
X3492500Y1460500D03*
X3556000Y1905000D03*
X3810000D03*
X3619500Y1778000D03*
Y2032000D03*
X3492500Y1651000D03*
X3810000Y2603500D03*
X3492500D03*
X3746500Y2730500D03*
X3619500Y3048000D03*
X3556000Y3873500D03*
Y4000500D03*
X3810000Y4254500D03*
X3492500Y4508500D03*
X3810000Y5207000D03*
X3492500Y5080000D03*
X4381500Y1016000D03*
X3937000Y2984500D03*
X4127500D03*
X4508500Y3873500D03*
X4318000Y4381500D03*
X4127500D03*
X4508500Y4064000D03*
Y5016500D03*
X4699000Y2730500D03*
X5207000Y3302000D03*
Y3873500D03*
Y4127500D03*
X5080000Y4000500D03*
X6032500Y3238500D03*
X6604000Y1968500D03*
Y1714500D03*
X7556500Y1587500D03*
X7683500D03*
X7810500Y1460500D03*
Y2222500D03*
X7937500Y2032000D03*
Y1841500D03*
Y3492500D03*
Y3937000D03*
X9080500Y3619500D03*
Y3302000D03*
X8699500Y4127500D03*
X9398000Y3492500D03*
G54D12*
X1456510Y4762500D03*
X1206500D03*
X6917510Y4826000D03*
X6667500D03*
X8318500Y4762500D03*
X8890000Y2155010D03*
Y1905000D03*
X8568510Y4762500D03*
G54D13*
X2214240Y1270000D03*
Y1397000D03*
Y1524000D03*
Y1651000D03*
Y1778000D03*
Y1905000D03*
Y2032000D03*
Y2159000D03*
X2277740Y3619500D03*
Y3746500D03*
Y3873500D03*
Y4000500D03*
Y4127500D03*
Y4254500D03*
Y4381500D03*
Y4508500D03*
X3119760Y1524000D03*
Y1397000D03*
Y1270000D03*
Y2159000D03*
Y2032000D03*
Y1905000D03*
Y1778000D03*
Y1651000D03*
X3183260Y3873500D03*
Y3746500D03*
Y3619500D03*
Y4508500D03*
Y4381500D03*
Y4254500D03*
Y4127500D03*
Y4000500D03*
G54D14*
X6950710Y1270000D03*
X7273290D03*
G54D15*
X6350000Y1807210D03*
Y2129790D03*
G54D16*
X6865620Y1841500D03*
Y1968500D03*
Y2095500D03*
Y2222500D03*
X7358380D03*
Y2095500D03*
Y1968500D03*
Y1841500D03*
X8199120Y3365500D03*
Y3492500D03*
Y3619500D03*
Y3746500D03*
X8691880D03*
Y3619500D03*
Y3492500D03*
Y3365500D03*
G54D17*
X9271000Y3912870D03*
Y4088130D03*
G54D18*
G01X1460500Y952500D02*
X571500D01*
Y3302000D01*
X928370D01*
G01X737870Y1905000D02*
Y2603500D01*
G01D02*
Y2857500D01*
X762000D01*
G01X1118870Y1270000D02*
Y1587500D01*
X1143000D01*
G01X1294130Y1270000D02*
X1587500D01*
Y1651000D01*
G01X1309370Y2349500D02*
Y1905000D01*
G01X1484630D02*
Y1714500D01*
X913130D01*
Y1905000D01*
G01X1484630D02*
Y2095500D01*
X1460500D01*
G01X1143000Y1841500D02*
Y1899680D01*
X1103630D01*
Y2222500D01*
G01Y3302000D02*
Y2222500D01*
G01X928370Y2413000D02*
Y2222500D01*
G01X1309370Y2603500D02*
Y2349500D01*
G01D02*
X1524000D01*
G01X1587500Y1651000D02*
Y2603500D01*
X1484630D01*
G01X913130D02*
Y2508490D01*
X928370D01*
Y2413000D01*
G01X1016000D02*
X928370D01*
G01X1524000Y3556000D02*
Y3614180D01*
X1499870Y3638310D01*
Y3873500D01*
G01X2277740Y4508500D02*
X1206500D01*
Y4762500D01*
G01X3556000D02*
X1456510D01*
G01X7937500Y1841500D02*
Y762000D01*
X1651000D01*
Y1778000D01*
X1905000D01*
G01X3492500Y1460500D02*
Y952500D01*
X1905000D01*
G01X2214240Y1397000D02*
Y1524000D01*
G01X1905000Y952500D02*
Y1524000D01*
X2214240D01*
G01X1778000Y952500D02*
X1905000D01*
G01X1968500Y1968500D02*
X2032000Y1905000D01*
X2214240D01*
G01Y1651000D02*
X1714500D01*
G01X1968500Y2222500D02*
X2063460D01*
X2126960Y2159000D01*
X2214240D01*
G01Y2032000D02*
Y2159000D01*
G01X1905000Y1778000D02*
Y2540000D01*
G01X2214240Y1778000D02*
X1905000D01*
G01X2881630Y2349500D02*
X1968500D01*
G01Y3937000D02*
Y2984500D01*
X3937000D01*
G01X1905000Y2540000D02*
Y4127500D01*
X2277740D01*
G01X2706370Y2540000D02*
X1905000D01*
G01X2198370Y2794000D02*
X2032000D01*
Y2857500D01*
G01X1778000Y3683000D02*
X1675130D01*
Y3873500D01*
G01X2032000Y3111500D02*
Y4000500D01*
X2277740D01*
G01Y3873500D02*
Y3746500D01*
G01Y3873500D02*
X2095500D01*
Y3302000D01*
G01X1968500Y4254500D02*
X2277740D01*
G01Y4381500D02*
Y4508500D01*
G01X2286000Y4699000D02*
Y4640820D01*
X2277740D01*
Y4508500D01*
G01X4039870Y5016500D02*
X2286000D01*
Y4889500D01*
G01X2881630Y2540000D02*
Y2349500D01*
G01X3389630Y2540000D02*
X2881630D01*
G01X2603500Y2794000D02*
X2373630D01*
G01X3214370D02*
X3048000D01*
Y2857500D01*
G01X3119760Y1524000D02*
X4039870D01*
G01X3119760Y1397000D02*
X3365500D01*
G01X4039870Y2032000D02*
X3683000D01*
Y1587500D01*
G01X3556000Y1905000D02*
X3119760D01*
G01X3810000D02*
X4508500D01*
Y2032000D01*
X4611370D01*
G01X3119760Y2159000D02*
Y2032000D01*
G01X4039870Y2476500D02*
X3119760D01*
Y2159000D01*
G01Y1778000D02*
X3619500D01*
G01Y2032000D02*
Y1778000D01*
G01X3492500Y1651000D02*
X3119760D01*
G01X3389630Y2794000D02*
Y2540000D01*
G01Y2794000D02*
X3746500D01*
G01D02*
Y2730500D01*
G01X3492500Y2603500D02*
X3810000D01*
G01X3183260Y4127500D02*
X3619500D01*
Y3048000D01*
G01X3183260Y3746500D02*
Y3873500D01*
G01X3556000Y4381500D02*
X4127500D01*
G01X3183260D02*
X3556000D01*
G01D02*
Y4762500D01*
G01Y4000500D02*
X3183260D01*
G01Y4254500D02*
X3810000D01*
G01X3183260Y3873500D02*
X3556000D01*
G01X3492500Y4508500D02*
X3183260D01*
G01X3810000Y5207000D02*
X5167630D01*
Y5016500D01*
G01X3492500Y5080000D02*
Y5344600D01*
X5739130D01*
Y5016500D01*
G01X4786630Y1333500D02*
X4215130D01*
G01D02*
Y1524000D01*
G01X4039870D02*
Y1143000D01*
G01X4215130D02*
X4381500D01*
Y1016000D01*
G01X4611370Y1524000D02*
Y2032000D01*
G01X7620000Y1270000D02*
Y952500D01*
X3873500D01*
Y1397000D01*
G01X4786630Y2032000D02*
Y2222500D01*
X4381500D01*
Y2032000D01*
X4215130D01*
G01D02*
Y2476500D01*
G01X4039870Y3619500D02*
Y2476500D01*
G01X4611370Y2984500D02*
Y2476500D01*
G01Y2984500D02*
X4127500D01*
G01X4215130Y5016500D02*
Y3619500D01*
G01D02*
X4786630D01*
Y2984500D01*
G01X4953000Y2476500D02*
Y4381500D01*
X4318000D01*
G01X4508500Y3873500D02*
Y4064000D01*
G01Y5016500D02*
X4992370D01*
G01X4786630Y1333500D02*
Y1270000D01*
X6604000D01*
G01X4786630Y1524000D02*
Y1333500D01*
G01X4953000Y2476500D02*
Y1524000D01*
G01D02*
X4786630D01*
G01X4699000Y2730500D02*
X4786630D01*
G01D02*
Y2476500D01*
G01D02*
X4953000D01*
G01X5207000Y3873500D02*
Y3302000D01*
G01Y4127500D02*
Y4476990D01*
X4992370D01*
Y4572000D01*
G01X5563870D02*
X5167630D01*
G01X5080000Y4000500D02*
X5690870D01*
Y2032000D01*
G01X5167630Y5016500D02*
X5563870D01*
G01X4992370D02*
Y4699000D01*
X5739130D01*
Y4572000D01*
G01X5866130Y1587500D02*
X6604000D01*
G01X5563870Y4572000D02*
Y4318000D01*
X5866130D01*
Y2032000D01*
G01X5690870Y1587500D02*
Y2032000D01*
G01X8199120Y3746500D02*
X6032500D01*
Y3238500D01*
G01X6667500Y4826000D02*
Y5016500D01*
X5739130D01*
G01X6950710Y1270000D02*
X6604000D01*
G01D02*
Y1587500D01*
G01Y1714500D02*
Y1587500D01*
G01D02*
X7556500D01*
G01X6350000Y1807210D02*
X6738860D01*
Y1841500D01*
X6865620D01*
G01X6604000Y1968500D02*
X6865620D01*
G01Y2095500D02*
X6481840D01*
Y2129790D01*
X6350000D01*
G01X6667500Y4826000D02*
X6917510D01*
G01X7620000Y1270000D02*
X7273290D01*
G01X7358380Y1841500D02*
X7620000D01*
Y1460500D01*
G01D02*
Y1270000D01*
G01X7810500Y1460500D02*
X7620000D01*
G01X7683500Y1905000D02*
X7620000Y1968500D01*
G01D02*
X7358380D01*
G01X7937500Y2159000D02*
X7493000D01*
X7429500Y2222500D01*
X7358380D01*
G01X7683500Y1587500D02*
Y1905000D01*
G01D02*
X8890000D01*
G01X8199120Y3365500D02*
X7810500D01*
Y2222500D01*
G01X8890000Y2155010D02*
Y2159000D01*
X7937500D01*
G01Y2032000D02*
Y2159000D01*
G01Y3492500D02*
X8199120D01*
G01X8318500Y4762500D02*
X7810500D01*
Y3802140D01*
X8325880D01*
Y3690860D01*
X7810500D01*
Y3619500D01*
X8199120D01*
G01X7937500Y3937000D02*
X8568510D01*
Y4762500D01*
G01X8890000Y1905000D02*
X9271000D01*
G01X8890000Y2155010D02*
X9080500D01*
Y3302000D01*
G01X9271000Y3365500D02*
X8691880D01*
G01Y3492500D02*
X9271000D01*
G01X8691880Y3746500D02*
Y4127500D01*
X8699500D01*
G01X9080500Y3619500D02*
X8691880D01*
G01X9271000Y4088130D02*
X9175990D01*
Y3912870D01*
X9271000D01*
G01Y1905000D02*
Y3365500D01*
G01Y3492500D02*
Y3912870D01*
G01X9398000Y3492500D02*
X9271000D01*
G54D19*
G01X1248390Y1905000D02*
X1309370D01*
G01Y1819890D02*
Y1905000D01*
G01X1248390Y2603500D02*
X1309370D01*
G01D02*
Y2688610D01*
G01X1363780Y4762500D02*
X1456510D01*
G01D02*
Y4855230D01*
G01Y4669770D02*
Y4762500D01*
G01X3050140Y4381500D02*
X3183260D01*
G01D02*
Y4427340D01*
G01Y4335660D02*
Y4381500D01*
G01X4215130Y1524000D02*
X4276110D01*
G01X4215130D02*
Y1609110D01*
G01X5866130Y1502390D02*
Y1587500D01*
G01D02*
Y1672610D01*
G01X6865620Y1968500D02*
X6982480D01*
G01X6865620D02*
Y2014240D01*
G01Y1922760D02*
Y1968500D01*
G01X6950710Y1270000D02*
Y1391940D01*
G01Y1148060D02*
Y1270000D01*
G01X7241520Y1968500D02*
X7358380D01*
G01D02*
Y2014240D01*
G01Y1922760D02*
Y1968500D01*
G01X8890000Y1905000D02*
Y1997730D01*
G01Y1812270D02*
Y1905000D01*
G01X8575020Y3365500D02*
X8691880D01*
G01D02*
Y3411240D01*
G01Y3319760D02*
Y3365500D01*
M02*
