M48
INCH
T01C.013
T02C.039
;LEADER: 12 
;HEADER: 
;CODE  : ASCII 
;FILE  : WEEK 11 ECG PROJECT new type 1-1-2.drl for board #Taaaaag04748.tmp ... layers TOP and BOTTOM
;T01 Holesize 1. = 13.000000 Tolerance = +0.000000/-0.000000 PLATED MILS Quantity = 73
;T02 Holesize 2. = 39.000000 Tolerance = +0.000000/-0.000000 PLATED MILS Quantity = 8
%
G90
T01
X00000300Y00001125
X00000400Y00000950
X00000450Y00000725
X00000450Y00000625
X00000700Y00000375
X00000575Y00000375
X00000625Y00000650
X00000675Y00000650
X00000775Y00000775
X00000575Y00000825
X00000775Y00000875
X00000600Y00000925
X00000775Y00000925
X00000800Y00001125
X00000800Y00001225
X00000825Y00001300
X00000600Y00001400
X00000700Y00001450
X00000775Y00001550
X00000775Y00001675
X00000900Y00001850
X00000900Y00001925
X00001375Y00002000
X00001375Y00001775
X00001400Y00001575
X00001400Y00001525
X00001425Y00001200
X00001200Y00001125
X00001025Y00001100
X00001475Y00001075
X00001375Y00001025
X00001425Y00000800
X00001400Y00000750
X00001425Y00000700
X00001375Y00000650
X00001450Y00000625
X00001375Y00000575
X00001325Y00000550
X00001725Y00000400
X00001525Y00000550
X00001500Y00000750
X00001500Y00001025
X00001850Y00001075
X00001550Y00001175
X00001625Y00001175
X00001775Y00001525
X00001775Y00001600
X00001500Y00001675
X00001625Y00001725
X00001700Y00001725
X00001775Y00001975
X00001500Y00002050
X00002050Y00001625
X00002050Y00001625
X00002000Y00001575
X00002050Y00001525
X00002050Y00001300
X00002375Y00001275
X00002600Y00000775
X00002600Y00000675
X00002975Y00000625
X00003075Y00000575
X00003025Y00000625
X00003125Y00000725
X00003125Y00000800
X00003075Y00000875
X00003125Y00001375
X00003125Y00001550
X00003425Y00001625
X00003425Y00001625
X00003575Y00001425
X00003700Y00001375
X00003575Y00001300
T02
X00000475Y00001875
X00000573Y00001875
X00002625Y00001900
X00002723Y00001900
X00003275Y00001875
X00003373Y00001875
X00003500Y00000848
X00003500Y00000750
M30
