G04 ================== begin FILE IDENTIFICATION RECORD ==================*
G04 Layout Name:  C:/Users/user/Desktop/electrode 30x40.brd*
G04 Film Name:    DRILL-DRAW*
G04 File Format:  Gerber RS274X*
G04 File Origin:  Cadence Allegro 16.6-P004*
G04 Origin Date:  Fri Jul 16 13:13:54 2021*
G04 *
G04 Layer:  MANUFACTURING/NCLEGEND-1-2*
G04 Layer:  BOARD GEOMETRY/OUTLINE*
G04 *
G04 Offset:    (0.0000 0.0000)*
G04 Mirror:    No*
G04 Mode:      Positive*
G04 Rotation:  0*
G04 FullContactRelief:  No*
G04 UndefLineWidth:     1.0000*
G04 ================== end FILE IDENTIFICATION RECORD ====================*
%FSLAX25Y25*MOIN*%
%IR0*IPPOS*OFA0.00000B0.00000*MIA0B0*SFA1.00000B1.00000*%
%AMMACRO10*
1,1,.03937,.025,0.0*
20,1,.03937,.025,0.0,.02462,-.004341,0.0*
1,1,.03937,.02462,-.004341*
20,1,.03937,.02462,-.004341,.023492,-.008551,0.0*
1,1,.03937,.023492,-.008551*
20,1,.03937,.023492,-.008551,.021651,-.0125,0.0*
1,1,.03937,.021651,-.0125*
20,1,.03937,.021651,-.0125,.019151,-.01607,0.0*
1,1,.03937,.019151,-.01607*
20,1,.03937,.019151,-.01607,.01607,-.019151,0.0*
1,1,.03937,.01607,-.019151*
20,1,.03937,.01607,-.019151,.0125,-.021651,0.0*
1,1,.03937,.0125,-.021651*
20,1,.03937,.0125,-.021651,.008551,-.023492,0.0*
1,1,.03937,.008551,-.023492*
20,1,.03937,.008551,-.023492,.004341,-.02462,0.0*
1,1,.03937,.004341,-.02462*
20,1,.03937,.004341,-.02462,0.0,-.025,0.0*
1,1,.03937,0.0,-.025*
20,1,.03937,0.0,-.025,-.004341,-.02462,0.0*
1,1,.03937,-.004341,-.02462*
20,1,.03937,-.004341,-.02462,-.008551,-.023492,0.0*
1,1,.03937,-.008551,-.023492*
20,1,.03937,-.008551,-.023492,-.0125,-.021651,0.0*
1,1,.03937,-.0125,-.021651*
20,1,.03937,-.0125,-.021651,-.01607,-.019151,0.0*
1,1,.03937,-.01607,-.019151*
20,1,.03937,-.01607,-.019151,-.019151,-.01607,0.0*
1,1,.03937,-.019151,-.01607*
20,1,.03937,-.019151,-.01607,-.021651,-.0125,0.0*
1,1,.03937,-.021651,-.0125*
20,1,.03937,-.021651,-.0125,-.023492,-.008551,0.0*
1,1,.03937,-.023492,-.008551*
20,1,.03937,-.023492,-.008551,-.02462,-.004341,0.0*
1,1,.03937,-.02462,-.004341*
20,1,.03937,-.02462,-.004341,-.025,0.0,0.0*
1,1,.03937,-.025,0.0*
20,1,.03937,-.025,0.0,-.02462,.004341,0.0*
1,1,.03937,-.02462,.004341*
20,1,.03937,-.02462,.004341,-.023492,.008551,0.0*
1,1,.03937,-.023492,.008551*
20,1,.03937,-.023492,.008551,-.021651,.0125,0.0*
1,1,.03937,-.021651,.0125*
20,1,.03937,-.021651,.0125,-.019151,.01607,0.0*
1,1,.03937,-.019151,.01607*
20,1,.03937,-.019151,.01607,-.01607,.019151,0.0*
1,1,.03937,-.01607,.019151*
20,1,.03937,-.01607,.019151,-.0125,.021651,0.0*
1,1,.03937,-.0125,.021651*
20,1,.03937,-.0125,.021651,-.008551,.023492,0.0*
1,1,.03937,-.008551,.023492*
20,1,.03937,-.008551,.023492,-.004341,.02462,0.0*
1,1,.03937,-.004341,.02462*
20,1,.03937,-.004341,.02462,0.0,.025,0.0*
1,1,.03937,0.0,.025*
20,1,.03937,0.0,.025,.004341,.02462,0.0*
1,1,.03937,.004341,.02462*
20,1,.03937,.004341,.02462,.008551,.023492,0.0*
1,1,.03937,.008551,.023492*
20,1,.03937,.008551,.023492,.0125,.021651,0.0*
1,1,.03937,.0125,.021651*
20,1,.03937,.0125,.021651,.01607,.019151,0.0*
1,1,.03937,.01607,.019151*
20,1,.03937,.01607,.019151,.019151,.01607,0.0*
1,1,.03937,.019151,.01607*
20,1,.03937,.019151,.01607,.021651,.0125,0.0*
1,1,.03937,.021651,.0125*
20,1,.03937,.021651,.0125,.023492,.008551,0.0*
1,1,.03937,.023492,.008551*
20,1,.03937,.023492,.008551,.02462,.004341,0.0*
1,1,.03937,.02462,.004341*
20,1,.03937,.02462,.004341,.025,0.0,0.0*
1,1,.03937,.025,0.0*
1,1,.03937,.0125,0.0*
20,1,.03937,.0125,0.0,-.0125,0.0,0.0*
1,1,.03937,-.0125,0.0*
1,1,.03937,0.0,.0125*
20,1,.03937,0.0,.0125,0.0,-.0125,0.0*
1,1,.03937,0.0,-.0125*
%
%ADD10MACRO10*%
%ADD11C,.03937*%
G75*
%LPD*%
G75*
G54D10*
X42450Y161659D03*
X140000Y27500D03*
G54D11*
G01X0Y0D02*
Y118110D01*
X157480D01*
Y0D01*
X0D01*
G01X-2500Y147609D02*
Y257500D01*
X481100D01*
Y147609D01*
X-2500D01*
G01Y175709D02*
X481100D01*
G01X-2500Y203809D02*
X481100D01*
G01X-2500Y231909D02*
X481100D01*
G01X8505Y185059D02*
Y197559D01*
X14395D01*
G01X12225Y191518D02*
X8505D01*
G01X21990Y197559D02*
X25710D01*
G01X23850D02*
Y185059D01*
G01X21990D02*
X25710D01*
G01X37180Y191309D02*
X40280D01*
Y187559D01*
X39350Y186309D01*
X38265Y185476D01*
X36715Y185059D01*
X35165Y185476D01*
X34080Y186309D01*
X33150Y187559D01*
X32530Y189018D01*
X32220Y190684D01*
Y192143D01*
X32530Y193393D01*
X33150Y194851D01*
X34080Y196101D01*
X35010Y196934D01*
X36250Y197559D01*
X37335D01*
X38575Y197143D01*
X39505Y196309D01*
G01X45240Y197559D02*
Y188601D01*
X45860Y186726D01*
X47100Y185476D01*
X48650Y185059D01*
X50200Y185476D01*
X51440Y186726D01*
X52060Y188601D01*
Y197559D01*
G01X57950Y185059D02*
Y197559D01*
X61825D01*
X63065Y196934D01*
X63840Y196101D01*
X64150Y194434D01*
X63840Y192768D01*
X62910Y191726D01*
X61825Y191101D01*
X57950D01*
G01X61825D02*
X64150Y185059D01*
G01X76550D02*
X70350D01*
Y197559D01*
X76550D01*
G01X74070Y191518D02*
X70350D01*
G01X87400Y203809D02*
Y147609D01*
G01X68025Y213159D02*
X71900Y225659D01*
X75775Y213159D01*
G01X74380Y217534D02*
X69420D01*
G01X81200Y225659D02*
Y213159D01*
X87400D01*
G01X93600Y225659D02*
Y213159D01*
X99800D01*
G01X118090Y225659D02*
Y216701D01*
X118710Y214826D01*
X119950Y213576D01*
X121500Y213159D01*
X123050Y213576D01*
X124290Y214826D01*
X124910Y216701D01*
Y225659D01*
G01X130335Y213159D02*
Y225659D01*
X137465Y213159D01*
Y225659D01*
G01X144440D02*
X148160D01*
G01X146300D02*
Y213159D01*
G01X144440D02*
X148160D01*
G01X158700Y225659D02*
Y213159D01*
G01X155135Y225659D02*
X162265D01*
G01X167845Y214826D02*
X169085Y213784D01*
X170480Y213159D01*
X171720D01*
X172960Y213784D01*
X173890Y214826D01*
X174355Y216285D01*
X174045Y217743D01*
X173270Y218993D01*
X171875Y219826D01*
X170015Y220243D01*
X168930Y221076D01*
X168465Y222534D01*
X168775Y223993D01*
X169550Y225034D01*
X170635Y225659D01*
X171720D01*
X172805Y225243D01*
X173735Y224201D01*
G01X192025Y213159D02*
X195900Y225659D01*
X199775Y213159D01*
G01X198380Y217534D02*
X193420D01*
G01X205200Y213159D02*
Y225659D01*
X209075D01*
X210315Y225034D01*
X211090Y224201D01*
X211400Y222534D01*
X211090Y220868D01*
X210160Y219826D01*
X209075Y219201D01*
X205200D01*
G01X209075D02*
X211400Y213159D01*
G01X223800D02*
X217600D01*
Y225659D01*
X223800D01*
G01X221320Y219618D02*
X217600D01*
G01X243640Y225659D02*
X247360D01*
G01X245500D02*
Y213159D01*
G01X243640D02*
X247360D01*
G01X254335D02*
Y225659D01*
X261465Y213159D01*
Y225659D01*
G01X278670Y213159D02*
Y225659D01*
X282700Y215243D01*
X286730Y225659D01*
Y213159D01*
G01X293240Y225659D02*
X296960D01*
G01X295100D02*
Y213159D01*
G01X293240D02*
X296960D01*
G01X304400Y225659D02*
Y213159D01*
X310600D01*
G01X316800Y225659D02*
Y213159D01*
X323000D01*
G01X330440Y225659D02*
X334160D01*
G01X332300D02*
Y213159D01*
G01X330440D02*
X334160D01*
G01X340670D02*
Y225659D01*
X344700Y215243D01*
X348730Y225659D01*
Y213159D01*
G01X360200D02*
X354000D01*
Y225659D01*
X360200D01*
G01X357720Y219618D02*
X354000D01*
G01X369500Y225659D02*
Y213159D01*
G01X365935Y225659D02*
X373065D01*
G01X385000Y213159D02*
X378800D01*
Y225659D01*
X385000D01*
G01X382520Y219618D02*
X378800D01*
G01X391200Y213159D02*
Y225659D01*
X395075D01*
X396315Y225034D01*
X397090Y224201D01*
X397400Y222534D01*
X397090Y220868D01*
X396160Y219826D01*
X395075Y219201D01*
X391200D01*
G01X395075D02*
X397400Y213159D01*
G01X403445Y214826D02*
X404685Y213784D01*
X406080Y213159D01*
X407320D01*
X408560Y213784D01*
X409490Y214826D01*
X409955Y216285D01*
X409645Y217743D01*
X408870Y218993D01*
X407475Y219826D01*
X405615Y220243D01*
X404530Y221076D01*
X404065Y222534D01*
X404375Y223993D01*
X405150Y225034D01*
X406235Y225659D01*
X407320D01*
X408405Y225243D01*
X409335Y224201D01*
G01X80890Y238750D02*
Y251250D01*
X83990D01*
X85230Y250625D01*
X86160Y249792D01*
X86935Y248542D01*
X87555Y247083D01*
X87710Y245000D01*
X87555Y242917D01*
X86935Y241458D01*
X86160Y240208D01*
X85230Y239375D01*
X83990Y238750D01*
X80890D01*
G01X93600D02*
Y251250D01*
X97475D01*
X98715Y250625D01*
X99490Y249792D01*
X99800Y248125D01*
X99490Y246458D01*
X98560Y245417D01*
X97475Y244791D01*
X93600D01*
G01X97475D02*
X99800Y238750D01*
G01X107240Y251250D02*
X110960D01*
G01X109100D02*
Y238750D01*
G01X107240D02*
X110960D01*
G01X118400Y251250D02*
Y238750D01*
X124600D01*
G01X130800Y251250D02*
Y238750D01*
X137000D01*
G01X162110Y250208D02*
X161180Y250833D01*
X160095Y251250D01*
X158855D01*
X157460Y250625D01*
X156375Y249583D01*
X155600Y248333D01*
X154980Y246250D01*
X154825Y244375D01*
X155135Y242500D01*
X155600Y241250D01*
X156530Y240000D01*
X157615Y239167D01*
X158700Y238750D01*
X159785D01*
X160870Y239167D01*
X161800Y239791D01*
X162575Y240624D01*
G01X167845Y238750D02*
Y251250D01*
G01X174355D02*
Y238750D01*
G01Y245000D02*
X167845D01*
G01X179625Y238750D02*
X183500Y251250D01*
X187375Y238750D01*
G01X185980Y243125D02*
X181020D01*
G01X192800Y238750D02*
Y251250D01*
X196675D01*
X197915Y250625D01*
X198690Y249792D01*
X199000Y248125D01*
X198690Y246458D01*
X197760Y245417D01*
X196675Y244791D01*
X192800D01*
G01X196675D02*
X199000Y238750D01*
G01X208300Y251250D02*
Y238750D01*
G01X204735Y251250D02*
X211865D01*
G01X220700Y238333D02*
X220390Y238542D01*
Y238958D01*
X220700Y239167D01*
X221010Y238958D01*
Y238542D01*
X220700Y238333D01*
G01Y243958D02*
X220390Y244167D01*
Y244583D01*
X220700Y244791D01*
X221010Y244583D01*
Y244167D01*
X220700Y243958D01*
G01X245500Y251250D02*
Y238750D01*
G01X241935Y251250D02*
X249065D01*
G01X257900Y238750D02*
X256660Y238958D01*
X255575Y239791D01*
X254645Y241042D01*
X254025Y242500D01*
X253715Y244167D01*
Y245833D01*
X254025Y247500D01*
X254645Y248958D01*
X255575Y250208D01*
X256660Y251042D01*
X257900Y251250D01*
X259140Y251042D01*
X260225Y250208D01*
X261155Y248958D01*
X261775Y247500D01*
X262085Y245833D01*
Y244167D01*
X261775Y242500D01*
X261155Y241042D01*
X260225Y239791D01*
X259140Y238958D01*
X257900Y238750D01*
G01X267200D02*
Y251250D01*
X270920D01*
X272160Y250625D01*
X273090Y249167D01*
X273400Y247500D01*
X273090Y245833D01*
X272315Y244583D01*
X270920Y243958D01*
X267200D01*
G01X295100Y251250D02*
Y238750D01*
G01X292930Y247083D02*
X297270D01*
G01X307500Y238750D02*
X306570Y238958D01*
X305640Y239791D01*
X305020Y241250D01*
X304710Y242917D01*
X305020Y244583D01*
X305640Y246042D01*
X306570Y246875D01*
X307500Y247083D01*
X308430Y246875D01*
X309360Y246042D01*
X309980Y244583D01*
X310135Y242917D01*
X309980Y241250D01*
X309360Y239791D01*
X308430Y238958D01*
X307500Y238750D01*
G01X333540Y245417D02*
X334160Y246042D01*
X334625Y247083D01*
X334935Y248542D01*
X334625Y249792D01*
X334005Y250625D01*
X332920Y251250D01*
X328735D01*
Y238750D01*
X333850D01*
X334935Y239583D01*
X335555Y240833D01*
X335865Y242292D01*
X335555Y243750D01*
X334625Y245000D01*
X333540Y245417D01*
X328735D01*
G01X344700Y238750D02*
X343460Y238958D01*
X342375Y239791D01*
X341445Y241042D01*
X340825Y242500D01*
X340515Y244167D01*
Y245833D01*
X340825Y247500D01*
X341445Y248958D01*
X342375Y250208D01*
X343460Y251042D01*
X344700Y251250D01*
X345940Y251042D01*
X347025Y250208D01*
X347955Y248958D01*
X348575Y247500D01*
X348885Y245833D01*
Y244167D01*
X348575Y242500D01*
X347955Y241042D01*
X347025Y239791D01*
X345940Y238958D01*
X344700Y238750D01*
G01X357100Y251250D02*
Y238750D01*
G01X353535Y251250D02*
X360665D01*
G01X369500D02*
Y238750D01*
G01X365935Y251250D02*
X373065D01*
G01X381900Y238750D02*
X380660Y238958D01*
X379575Y239791D01*
X378645Y241042D01*
X378025Y242500D01*
X377715Y244167D01*
Y245833D01*
X378025Y247500D01*
X378645Y248958D01*
X379575Y250208D01*
X380660Y251042D01*
X381900Y251250D01*
X383140Y251042D01*
X384225Y250208D01*
X385155Y248958D01*
X385775Y247500D01*
X386085Y245833D01*
Y244167D01*
X385775Y242500D01*
X385155Y241042D01*
X384225Y239791D01*
X383140Y238958D01*
X381900Y238750D01*
G01X390270D02*
Y251250D01*
X394300Y240833D01*
X398330Y251250D01*
Y238750D01*
G01X150950Y167909D02*
X149710Y167493D01*
X148780Y166451D01*
X148160Y165201D01*
X147695Y163534D01*
X147540Y161659D01*
X147695Y159784D01*
X148160Y158118D01*
X148780Y156867D01*
X149710Y155826D01*
X150950Y155409D01*
X152190Y155826D01*
X153120Y156867D01*
X153740Y158118D01*
X154205Y159784D01*
X154360Y161659D01*
X154205Y163534D01*
X153740Y165201D01*
X153120Y166451D01*
X152190Y167493D01*
X150950Y167909D01*
G01X163350Y154993D02*
X163040Y155201D01*
Y155618D01*
X163350Y155826D01*
X163660Y155618D01*
Y155201D01*
X163350Y154993D01*
G01X172340Y157909D02*
X173270Y156451D01*
X174510Y155618D01*
X175905Y155409D01*
X177145Y155618D01*
X178385Y156659D01*
X179160Y157909D01*
X179315Y159159D01*
X179005Y160617D01*
X177920Y161659D01*
X176835Y162076D01*
X175440D01*
G01X176835D02*
X177765Y162701D01*
X178540Y163743D01*
X178850Y164993D01*
X178540Y166243D01*
X177765Y167284D01*
X176370Y167909D01*
X174975Y167701D01*
X173580Y166868D01*
G01X184740Y157909D02*
X185670Y156451D01*
X186910Y155618D01*
X188305Y155409D01*
X189545Y155618D01*
X190785Y156659D01*
X191560Y157909D01*
X191715Y159159D01*
X191405Y160617D01*
X190320Y161659D01*
X189235Y162076D01*
X187840D01*
G01X189235D02*
X190165Y162701D01*
X190940Y163743D01*
X191250Y164993D01*
X190940Y166243D01*
X190165Y167284D01*
X188770Y167909D01*
X187375Y167701D01*
X185980Y166868D01*
G01X200550Y167909D02*
X199310Y167493D01*
X198380Y166451D01*
X197760Y165201D01*
X197295Y163534D01*
X197140Y161659D01*
X197295Y159784D01*
X197760Y158118D01*
X198380Y156867D01*
X199310Y155826D01*
X200550Y155409D01*
X201790Y155826D01*
X202720Y156867D01*
X203340Y158118D01*
X203805Y159784D01*
X203960Y161659D01*
X203805Y163534D01*
X203340Y165201D01*
X202720Y166451D01*
X201790Y167493D01*
X200550Y167909D01*
G01X210005Y165826D02*
X210935Y167076D01*
X212020Y167701D01*
X213260Y167909D01*
X214810Y167493D01*
X215895Y166451D01*
X216205Y165201D01*
X216050Y163951D01*
X215430Y162909D01*
X212330Y160826D01*
X210935Y159368D01*
X210005Y157284D01*
X209695Y155409D01*
X216205D01*
G01X160095Y186726D02*
X161335Y185684D01*
X162730Y185059D01*
X163970D01*
X165210Y185684D01*
X166140Y186726D01*
X166605Y188185D01*
X166295Y189643D01*
X165520Y190893D01*
X164125Y191726D01*
X162265Y192143D01*
X161180Y192976D01*
X160715Y194434D01*
X161025Y195893D01*
X161800Y196934D01*
X162885Y197559D01*
X163970D01*
X165055Y197143D01*
X165985Y196101D01*
G01X173890Y197559D02*
X177610D01*
G01X175750D02*
Y185059D01*
G01X173890D02*
X177610D01*
G01X185205Y197559D02*
X191095D01*
X185205Y185059D01*
X191095D01*
G01X203650D02*
X197450D01*
Y197559D01*
X203650D01*
G01X201170Y191518D02*
X197450D01*
G01X276500Y203809D02*
Y147609D01*
G01X305950Y155409D02*
Y167909D01*
X309670D01*
X310910Y167284D01*
X311840Y165826D01*
X312150Y164159D01*
X311840Y162493D01*
X311065Y161243D01*
X309670Y160617D01*
X305950D01*
G01X318350Y167909D02*
Y155409D01*
X324550D01*
G01X329975D02*
X333850Y167909D01*
X337725Y155409D01*
G01X336330Y159784D02*
X331370D01*
G01X346250Y167909D02*
Y155409D01*
G01X342685Y167909D02*
X349815D01*
G01X361750Y155409D02*
X355550D01*
Y167909D01*
X361750D01*
G01X359270Y161868D02*
X355550D01*
G01X367640Y155409D02*
Y167909D01*
X370740D01*
X371980Y167284D01*
X372910Y166451D01*
X373685Y165201D01*
X374305Y163743D01*
X374460Y161659D01*
X374305Y159576D01*
X373685Y158118D01*
X372910Y156867D01*
X371980Y156034D01*
X370740Y155409D01*
X367640D01*
G01X305950Y185059D02*
Y197559D01*
X309670D01*
X310910Y196934D01*
X311840Y195476D01*
X312150Y193809D01*
X311840Y192143D01*
X311065Y190893D01*
X309670Y190267D01*
X305950D01*
G01X318350Y197559D02*
Y185059D01*
X324550D01*
G01X329975D02*
X333850Y197559D01*
X337725Y185059D01*
G01X336330Y189434D02*
X331370D01*
G01X346250Y197559D02*
Y185059D01*
G01X342685Y197559D02*
X349815D01*
G01X361750Y185059D02*
X355550D01*
Y197559D01*
X361750D01*
G01X359270Y191518D02*
X355550D01*
G01X367640Y185059D02*
Y197559D01*
X370740D01*
X371980Y196934D01*
X372910Y196101D01*
X373685Y194851D01*
X374305Y193393D01*
X374460Y191309D01*
X374305Y189226D01*
X373685Y187768D01*
X372910Y186517D01*
X371980Y185684D01*
X370740Y185059D01*
X367640D01*
G01X403600Y203809D02*
Y147609D01*
G01X442350Y155409D02*
Y167909D01*
X440490Y165409D01*
G01Y155409D02*
X444210D01*
G01X429950Y185059D02*
X428710Y185268D01*
X427625Y186101D01*
X426695Y187351D01*
X426075Y188809D01*
X425765Y190476D01*
Y192143D01*
X426075Y193809D01*
X426695Y195268D01*
X427625Y196518D01*
X428710Y197351D01*
X429950Y197559D01*
X431190Y197351D01*
X432275Y196518D01*
X433205Y195268D01*
X433825Y193809D01*
X434135Y192143D01*
Y190476D01*
X433825Y188809D01*
X433205Y187351D01*
X432275Y186101D01*
X431190Y185268D01*
X429950Y185059D01*
G01X431190Y188393D02*
X433050Y185059D01*
G01X442350Y197559D02*
Y185059D01*
G01X438785Y197559D02*
X445915D01*
G01X454750Y185059D02*
Y190684D01*
X451650Y197559D01*
G01X457850D02*
X454750Y190684D01*
M02*
