G04 ================== begin FILE IDENTIFICATION RECORD ==================*
G04 Layout Name:  C:/Users/user/Desktop/electrode 30x40.brd*
G04 Film Name:    SILK_TOP*
G04 File Format:  Gerber RS274X*
G04 File Origin:  Cadence Allegro 16.6-P004*
G04 Origin Date:  Fri Jul 16 13:13:54 2021*
G04 *
G04 Layer:  REF DES/SILKSCREEN_TOP*
G04 Layer:  PACKAGE GEOMETRY/SILKSCREEN_TOP*
G04 Layer:  BOARD GEOMETRY/OUTLINE*
G04 Layer:  BOARD GEOMETRY/DIMENSION*
G04 Layer:  BOARD GEOMETRY/SILKSCREEN_TOP*
G04 *
G04 Offset:    (0.0000 0.0000)*
G04 Mirror:    No*
G04 Mode:      Positive*
G04 Rotation:  0*
G04 FullContactRelief:  No*
G04 UndefLineWidth:     1.0000*
G04 ================== end FILE IDENTIFICATION RECORD ====================*
%FSLAX25Y25*MOIN*%
%IR0*IPPOS*OFA0.00000B0.00000*MIA0B0*SFA1.00000B1.00000*%
%ADD10C,.006*%
%ADD11C,.03937*%
G75*
%LPD*%
G75*
G36*
G01X60000Y90000D02*
Y50000D01*
X100000D01*
Y90000D01*
X60000D01*
G37*
G54D10*
G01X111650Y19650D02*
X128350D01*
G01Y40350D02*
X111650D01*
G01X121850Y80000D02*
G03I-300J0D01*
G01X130540Y83150D02*
X129460D01*
G01Y76850D02*
X130540D01*
G54D11*
G01X0Y0D02*
Y118110D01*
X157480D01*
Y0D01*
X0D01*
G01X19493Y25000D02*
Y28583D01*
X19240Y29333D01*
X18733Y29833D01*
X18100Y30000D01*
X17467Y29833D01*
X16960Y29333D01*
X16707Y28583D01*
Y25000D01*
G01X14204Y25833D02*
X13823Y25333D01*
X13380Y25083D01*
X12873Y25000D01*
X12240Y25167D01*
X11796Y25583D01*
X11670Y26083D01*
X11733Y26583D01*
X11987Y27000D01*
X13253Y27833D01*
X13823Y28417D01*
X14204Y29250D01*
X14330Y30000D01*
X11670D01*
G01X37874Y73701D02*
Y24488D01*
X22126D01*
Y73701D01*
X37874D01*
G01X77713Y97500D02*
Y95708D01*
X77820Y95333D01*
X78033Y95083D01*
X78300Y95000D01*
X78567Y95083D01*
X78780Y95333D01*
X78887Y95708D01*
Y97500D01*
G01X80820Y95000D02*
Y97500D01*
X79833Y95708D01*
X81167D01*
G01X133103Y20967D02*
X130317Y17300D01*
G01X131710Y16633D02*
Y21633D01*
G01X130317Y20967D02*
X133103Y17300D01*
G01X133610Y19133D02*
X129810D01*
G01X146443Y17500D02*
Y21083D01*
X146190Y21833D01*
X145683Y22333D01*
X145050Y22500D01*
X144417Y22333D01*
X143910Y21833D01*
X143657Y21083D01*
Y17500D01*
G01X141343Y21500D02*
X140963Y22083D01*
X140457Y22417D01*
X139887Y22500D01*
X139380Y22417D01*
X138873Y22000D01*
X138557Y21500D01*
X138493Y21000D01*
X138620Y20417D01*
X139063Y20000D01*
X139507Y19833D01*
X140077D01*
G01X139507D02*
X139127Y19583D01*
X138810Y19167D01*
X138683Y18667D01*
X138810Y18167D01*
X139127Y17750D01*
X139697Y17500D01*
X140267Y17583D01*
X140837Y17917D01*
G01X126183Y77500D02*
Y82500D01*
X127767D01*
X128273Y82250D01*
X128590Y81917D01*
X128717Y81250D01*
X128590Y80583D01*
X128210Y80167D01*
X127767Y79917D01*
X126183D01*
G01X127767D02*
X128717Y77500D01*
G01X132550D02*
Y82500D01*
X131790Y81500D01*
G01Y77500D02*
X133310D01*
M02*
